<svg xmlns="http://www.w3.org/2000/svg" xmlns:xlink="http://www.w3.org/1999/xlink" version="1.1" class="marks" width="1212" height="954" viewBox="0 0 1212 954"><rect width="1212" height="954" fill="white"/><g fill="none" stroke-miterlimit="10" transform="translate(12,34)"><g class="mark-group role-frame root" role="graphics-object" aria-roledescription="group mark container"><g transform="translate(0,0)"><path class="background" aria-hidden="true" d="M0,0h1060v908h-1060Z"/><g><g class="mark-group role-axis"><g transform="translate(0.5,908.5)"><path class="background" aria-hidden="true" d="M0,0h0v0h0Z" pointer-events="none"/><g/><path class="foreground" aria-hidden="true" d="" pointer-events="none" display="none"/></g></g><g class="mark-group role-axis"><g transform="translate(0.5,0.5)"><path class="background" aria-hidden="true" d="M0,0h0v0h0Z" pointer-events="none"/><g/><path class="foreground" aria-hidden="true" d="" pointer-events="none" display="none"/></g></g><g class="mark-rule role-mark layer_0_marks" role="graphics-symbol" aria-roledescription="rule mark container"><line transform="translate(80.83723980057525,454)" x2="898.3255203988494" y2="0" stroke="#C7C7CC" stroke-width="1.2" stroke-dasharray="2,4"/></g><g class="mark-rule role-mark layer_1_marks" role="graphics-symbol" aria-roledescription="rule mark container"><line transform="translate(530,838.7545153406393)" x2="0" y2="-769.5090306812785" stroke="#C7C7CC" stroke-width="1.2" stroke-dasharray="2,4"/></g><g class="mark-text role-mark layer_2_marks" role="graphics-object" aria-roledescription="text mark container"><text aria-label="x: 5.08486143622; y: 0.159650280572; t: Cost Efficient" role="graphics-symbol" aria-roledescription="text mark" text-anchor="end" transform="translate(979.1627601994247,438.9197954367146)" font-family="Roboto, -apple-system, Helvetica, Arial, sans-serif" font-size="14px" font-style="italic" fill="#6E6E73">Cost Efficient</text></g><g class="mark-text role-mark layer_3_marks" role="graphics-object" aria-roledescription="text mark container"><text aria-label="x: −5.08486143622; y: 0.159650280572; t: User Friendly" role="graphics-symbol" aria-roledescription="text mark" text-anchor="start" transform="translate(80.83723980057525,438.9197954367146)" font-family="Roboto, -apple-system, Helvetica, Arial, sans-serif" font-size="14px" font-style="italic" fill="#6E6E73">User Friendly</text></g><g class="mark-text role-mark layer_4_marks" role="graphics-object" aria-roledescription="text mark container"><text aria-label="x: 0.159650280572; y: 5.08486143622; t: Privacy Compliant" role="graphics-symbol" aria-roledescription="text mark" text-anchor="start" transform="translate(544.1024414505314,80.24548465936067)" font-family="Roboto, -apple-system, Helvetica, Arial, sans-serif" font-size="14px" font-style="italic" fill="#6E6E73">Privacy Compliant</text></g><g class="mark-text role-mark layer_5_marks" role="graphics-object" aria-roledescription="text mark container"><text aria-label="x: 0.159650280572; y: −5.08486143622; t: High Cost" role="graphics-symbol" aria-roledescription="text mark" text-anchor="start" transform="translate(544.1024414505314,835.7545153406393)" font-family="Roboto, -apple-system, Helvetica, Arial, sans-serif" font-size="14px" font-style="italic" fill="#6E6E73">High Cost</text></g><g class="mark-symbol role-mark layer_6_marks" role="graphics-object" aria-roledescription="symbol mark container"><path aria-label="axis1: 2.77636358792; axis2: 2.23279924721; name: Sidekick; role: best" role="graphics-symbol" aria-roledescription="point" transform="translate(775.2454502664644,285.05152362740756)" d="M5.701,0A5.701,5.701,0,1,1,-5.701,0A5.701,5.701,0,1,1,5.701,0" fill="#FF3B30" stroke="white" stroke-width="1" opacity="0.95"/><path aria-label="axis1: −3.19300561144; axis2: −0.227379919371; name: Salesforce Voice; role: competitor" role="graphics-symbol" aria-roledescription="point" transform="translate(247.95117098937223,471.205080565709)" d="M5.701,0A5.701,5.701,0,1,1,-5.701,0A5.701,5.701,0,1,1,5.701,0" fill="#FC9B7C" stroke="white" stroke-width="1" opacity="0.95"/><path aria-label="axis1: −2.68815420931; axis2: −0.907890252319; name: Zendesk AI Voice; role: worst" role="graphics-symbol" aria-roledescription="point" transform="translate(292.54637817736597,522.697029092121)" d="M5.701,0A5.701,5.701,0,1,1,-5.701,0A5.701,5.701,0,1,1,5.701,0" fill="#A52A2A" stroke="white" stroke-width="1" opacity="0.95"/><path aria-label="axis1: −0.987250497982; axis2: 0.974336702082; name: Cresta Assist; role: innovative" role="graphics-symbol" aria-roledescription="point" transform="translate(442.7928726782735,380.27518954249143)" d="M5.701,0A5.701,5.701,0,1,1,-5.701,0A5.701,5.701,0,1,1,5.701,0" fill="#AF52DE" stroke="white" stroke-width="1" opacity="0.95"/><path aria-label="axis1: −1.49326269096; axis2: −0.625468066446; name: Level (QA + real-time); role: competitor" role="graphics-symbol" aria-roledescription="point" transform="translate(398.0951289652397,501.3270836943873)" d="M5.701,0A5.701,5.701,0,1,1,-5.701,0A5.701,5.701,0,1,1,5.701,0" fill="#FAB066" stroke="white" stroke-width="1" opacity="0.95"/><path aria-label="axis1: −1.15735126857; axis2: 0.695755573743; name: Observe.AI; role: competitor" role="graphics-symbol" aria-roledescription="point" transform="translate(427.76730460941167,401.3544949201457)" d="M5.701,0A5.701,5.701,0,1,1,-5.701,0A5.701,5.701,0,1,1,5.701,0" fill="#CF76A7" stroke="white" stroke-width="1" opacity="0.95"/><path aria-label="axis1: −2.44922626191; axis2: −0.145584919295; name: Cogito Coach; role: competitor" role="graphics-symbol" aria-roledescription="point" transform="translate(313.6516801978224,465.01592555999866)" d="M5.701,0A5.701,5.701,0,1,1,-5.701,0A5.701,5.701,0,1,1,5.701,0" fill="#E47E8B" stroke="white" stroke-width="1" opacity="0.95"/><path aria-label="axis1: −2.44922626191; axis2: −0.145584919295; name: ASAPP GenAgent; role: competitor" role="graphics-symbol" aria-roledescription="point" transform="translate(313.6516801978224,465.01592555999866)" d="M5.701,0A5.701,5.701,0,1,1,-5.701,0A5.701,5.701,0,1,1,5.701,0" fill="#EA857C" stroke="white" stroke-width="1" opacity="0.95"/><path aria-label="axis1: −0.252920668887; axis2: 2.23279924721; name: Google Assist; role: competitor" role="graphics-symbol" aria-roledescription="point" transform="translate(507.6586742483017,285.05152362740756)" d="M5.701,0A5.701,5.701,0,1,1,-5.701,0A5.701,5.701,0,1,1,5.701,0" fill="#AF97EE" stroke="white" stroke-width="1" opacity="0.95"/><path aria-label="axis1: −0.316588444058; axis2: 1.33646888098; name: Amazon Connect; role: competitor" role="graphics-symbol" aria-roledescription="point" transform="translate(502.03468744157726,352.8738546723163)" d="M5.701,0A5.701,5.701,0,1,1,-5.701,0A5.701,5.701,0,1,1,5.701,0" fill="#C396E9" stroke="white" stroke-width="1" opacity="0.95"/><path aria-label="axis1: 0.161801439767; axis2: 0.173170930932; name: Azure Com + OpenAI; role: competitor" role="graphics-symbol" aria-roledescription="point" transform="translate(544.2924605127537,440.8967328927879)" d="M5.701,0A5.701,5.701,0,1,1,-5.701,0A5.701,5.701,0,1,1,5.701,0" fill="#68BCFD" stroke="white" stroke-width="1" opacity="0.95"/><path aria-label="axis1: −1.59969568638; axis2: −0.00771882855242; name: NICE Enlighten AI; role: competitor" role="graphics-symbol" aria-roledescription="point" transform="translate(388.69354770310235,454.5840580271328)" d="M5.701,0A5.701,5.701,0,1,1,-5.701,0A5.701,5.701,0,1,1,5.701,0" fill="#F28EAE" stroke="white" stroke-width="1" opacity="0.95"/><path aria-label="axis1: −1.16947889671; axis2: 1.02225641613; name: Genesys AI; role: competitor" role="graphics-symbol" aria-roledescription="point" transform="translate(426.6960307910243,376.6492645128301)" d="M5.701,0A5.701,5.701,0,1,1,-5.701,0A5.701,5.701,0,1,1,5.701,0" fill="#B97BC4" stroke="white" stroke-width="1" opacity="0.95"/><path aria-label="axis1: −0.794162131185; axis2: 0.653054078083; name: Talkdesk Copilot; role: competitor" role="graphics-symbol" aria-roledescription="point" transform="translate(459.8490117453362,404.5855747583994)" d="M5.701,0A5.701,5.701,0,1,1,-5.701,0A5.701,5.701,0,1,1,5.701,0" fill="#EC9BDB" stroke="white" stroke-width="1" opacity="0.95"/><path aria-label="axis1: −1.85981170546; axis2: −0.759112944896; name: Five9 AI; role: competitor" role="graphics-symbol" aria-roledescription="point" transform="translate(365.7166326840422,511.4395461637813)" d="M5.701,0A5.701,5.701,0,1,1,-5.701,0A5.701,5.701,0,1,1,5.701,0" fill="#C5723D" stroke="white" stroke-width="1" opacity="0.95"/><path aria-label="axis1: −0.473631344837; axis2: −0.209020847364; name: Dialpad AI Contact; role: competitor" role="graphics-symbol" aria-roledescription="point" transform="translate(488.16256453938155,469.81591078386714)" d="M5.701,0A5.701,5.701,0,1,1,-5.701,0A5.701,5.701,0,1,1,5.701,0" fill="#EAB258" stroke="white" stroke-width="1" opacity="0.95"/><path aria-label="axis1: −0.915975762644; axis2: −0.912495249659; name: Aircall AI; role: competitor" role="graphics-symbol" aria-roledescription="point" transform="translate(449.08880763307224,523.0454738908543)" d="M5.701,0A5.701,5.701,0,1,1,-5.701,0A5.701,5.701,0,1,1,5.701,0" fill="#B18F23" stroke="white" stroke-width="1" opacity="0.95"/><path aria-label="axis1: 0.862815569047; axis2: 1.76904553513; name: Diabolocom / Zaion; role: competitor" role="graphics-symbol" aria-roledescription="point" transform="translate(606.2153752657908,320.14222117491454)" d="M5.701,0A5.701,5.701,0,1,1,-5.701,0A5.701,5.701,0,1,1,5.701,0" fill="#A0BBFF" stroke="white" stroke-width="1" opacity="0.95"/><path aria-label="axis1: 0.602699549963; axis2: 1.01765141879; name: Kwak.ai; role: competitor" role="graphics-symbol" aria-roledescription="point" transform="translate(583.2384602467306,376.9977093115631)" d="M5.701,0A5.701,5.701,0,1,1,-5.701,0A5.701,5.701,0,1,1,5.701,0" fill="#598ED8" stroke="white" stroke-width="1" opacity="0.95"/><path aria-label="axis1: 0.496266554543; axis2: 1.63540065668; name: Allo-Media; role: competitor" role="graphics-symbol" aria-roledescription="point" transform="translate(573.8368789845932,330.2546836443086)" d="M5.701,0A5.701,5.701,0,1,1,-5.701,0A5.701,5.701,0,1,1,5.701,0" fill="#908FE5" stroke="white" stroke-width="1" opacity="0.95"/><path aria-label="axis1: 0.643551200708; axis2: −0.813780645008; name: Gladia; role: competitor" role="graphics-symbol" aria-roledescription="point" transform="translate(586.847022729203,515.5760688056117)" d="M5.701,0A5.701,5.701,0,1,1,-5.701,0A5.701,5.701,0,1,1,5.701,0" fill="#0B9D76" stroke="white" stroke-width="1" opacity="0.95"/><path aria-label="axis1: 0.731474232144; axis2: −0.570451963551; name: pyannoteAI; role: competitor" role="graphics-symbol" aria-roledescription="point" transform="translate(594.6135571727021,497.1641985753341)" d="M5.701,0A5.701,5.701,0,1,1,-5.701,0A5.701,5.701,0,1,1,5.701,0" fill="#08B59F" stroke="white" stroke-width="1" opacity="0.95"/><path aria-label="axis1: 0.190525462379; axis2: −1.33176029048; name: OpenAI Realtime; role: competitor" role="graphics-symbol" aria-roledescription="point" transform="translate(546.8297491768386,554.7698619795209)" d="M5.701,0A5.701,5.701,0,1,1,-5.701,0A5.701,5.701,0,1,1,5.701,0" fill="#BEB24A" stroke="white" stroke-width="1" opacity="0.95"/><path aria-label="axis1: 0.190525462379; axis2: −1.33176029048; name: Anthropic Claude; role: competitor" role="graphics-symbol" aria-roledescription="point" transform="translate(546.8297491768386,554.7698619795209)" d="M5.701,0A5.701,5.701,0,1,1,-5.701,0A5.701,5.701,0,1,1,5.701,0" fill="#B2C05D" stroke="white" stroke-width="1" opacity="0.95"/><path aria-label="axis1: 2.17366061249; axis2: −1.03209137519; name: Whisper / LangChain; role: trustworthy" role="graphics-symbol" aria-roledescription="point" transform="translate(722.0066874368171,532.0949140558209)" d="M5.701,0A5.701,5.701,0,1,1,-5.701,0A5.701,5.701,0,1,1,5.701,0" fill="#007AFF" stroke="white" stroke-width="1" opacity="0.95"/><path aria-label="axis1: 2.77636358792; axis2: 0.3081948583; name: pyannote OSS + Ollama; role: competitor" role="graphics-symbol" aria-roledescription="point" transform="translate(775.2454502664644,430.67992238861115)" d="M5.701,0A5.701,5.701,0,1,1,-5.701,0A5.701,5.701,0,1,1,5.701,0" fill="#63D2FF" stroke="white" stroke-width="1" opacity="0.95"/><path aria-label="axis1: 2.23877469527; axis2: −0.276767094517; name: LiveKit Agents; role: competitor" role="graphics-symbol" aria-roledescription="point" transform="translate(727.7584314158739,474.94204348515007)" d="M5.701,0A5.701,5.701,0,1,1,-5.701,0A5.701,5.701,0,1,1,5.701,0" fill="#0CC0D0" stroke="white" stroke-width="1" opacity="0.95"/><path aria-label="axis1: 2.23877469527; axis2: −0.276767094517; name: pipecat; role: competitor" role="graphics-symbol" aria-roledescription="point" transform="translate(727.7584314158739,474.94204348515007)" d="M5.701,0A5.701,5.701,0,1,1,-5.701,0A5.701,5.701,0,1,1,5.701,0" fill="#00A0C2" stroke="white" stroke-width="1" opacity="0.95"/><path aria-label="axis1: 1.15908392336; axis2: −1.67978573478; name: Vocode; role: competitor" role="graphics-symbol" aria-roledescription="point" transform="translate(632.3857465632518,581.1037872651019)" d="M5.701,0A5.701,5.701,0,1,1,-5.701,0A5.701,5.701,0,1,1,5.701,0" fill="#3E9E65" stroke="white" stroke-width="1" opacity="0.95"/><path aria-label="axis1: 1.42111351195; axis2: −0.611039158765; name: Rasa Pro CALM; role: competitor" role="graphics-symbol" aria-roledescription="point" transform="translate(655.5316935552524,500.23529634656774)" d="M5.701,0A5.701,5.701,0,1,1,-5.701,0A5.701,5.701,0,1,1,5.701,0" fill="#00B7B4" stroke="white" stroke-width="1" opacity="0.95"/><path aria-label="axis1: 1.10801103821; axis2: −2.44425839817; name: OpenOats; role: competitor" role="graphics-symbol" aria-roledescription="point" transform="translate(627.874308375523,638.948885461203)" d="M5.701,0A5.701,5.701,0,1,1,-5.701,0A5.701,5.701,0,1,1,5.701,0" fill="#7AA047" stroke="white" stroke-width="1" opacity="0.95"/><path aria-label="axis1: 0.808489675996; axis2: −1.50522653627; name: Open Granola; role: competitor" role="graphics-symbol" aria-roledescription="point" transform="translate(601.4165880463229,567.8954745780405)" d="M5.701,0A5.701,5.701,0,1,1,-5.701,0A5.701,5.701,0,1,1,5.701,0" fill="#75B76C" stroke="white" stroke-width="1" opacity="0.95"/></g><g class="mark-text role-mark layer_7_marks" role="graphics-object" aria-roledescription="text mark container"><text aria-label="labelx: 2.77636358792; labely: 2.43809117498; label: Sidekick" role="graphics-symbol" aria-roledescription="text mark" text-anchor="middle" transform="translate(775.2454502664644,272.5177677595467)" font-family="Roboto, -apple-system, Helvetica, Arial, sans-serif" font-size="10px" fill="#1C1C1E">Sidekick</text><text aria-label="labelx: −3.19300561144; labely: −0.0220879916015; label: Salesforce Voice" role="graphics-symbol" aria-roledescription="text mark" text-anchor="middle" transform="translate(247.95117098937223,458.6713246978479)" font-family="Roboto, -apple-system, Helvetica, Arial, sans-serif" font-size="10px" fill="#1C1C1E">Salesforce Voice</text><text aria-label="labelx: −2.68815420931; labely: −0.70259832455; label: Zendesk AI Voice" role="graphics-symbol" aria-roledescription="text mark" text-anchor="middle" transform="translate(292.54637817736597,510.16327322426025)" font-family="Roboto, -apple-system, Helvetica, Arial, sans-serif" font-size="10px" fill="#1C1C1E">Zendesk AI Voice</text><text aria-label="labelx: −0.475739401675; labely: 0.974336702082; label: Cresta Assist" role="graphics-symbol" aria-roledescription="text mark" text-anchor="middle" transform="translate(487.97635285201545,383.27518954249143)" font-family="Roboto, -apple-system, Helvetica, Arial, sans-serif" font-size="10px" fill="#1C1C1E">Cresta Assist</text><text aria-label="labelx: −0.707615257618; labely: −0.625468066446; label: Level (QA + real-time)" role="graphics-symbol" aria-roledescription="text mark" text-anchor="middle" transform="translate(467.49398557706513,504.3270836943873)" font-family="Roboto, -apple-system, Helvetica, Arial, sans-serif" font-size="10px" fill="#1C1C1E">Level (QA + real-time)</text><text aria-label="labelx: −1.57748358587; labely: 0.695755573743; label: Observe.AI" role="graphics-symbol" aria-roledescription="text mark" text-anchor="middle" transform="translate(390.6556165816975,404.3544949201457)" font-family="Roboto, -apple-system, Helvetica, Arial, sans-serif" font-size="10px" fill="#1C1C1E">Observe.AI</text><text aria-label="labelx: −2.44922626191; labely: −0.350876847064; label: Cogito Coach" role="graphics-symbol" aria-roledescription="text mark" text-anchor="middle" transform="translate(313.6516801978224,483.5496814278597)" font-family="Roboto, -apple-system, Helvetica, Arial, sans-serif" font-size="10px" fill="#1C1C1E">Cogito Coach</text><text aria-label="labelx: −0.252920668887; labely: 2.43809117498; label: Google Assist" role="graphics-symbol" aria-roledescription="text mark" text-anchor="middle" transform="translate(507.6586742483017,272.5177677595467)" font-family="Roboto, -apple-system, Helvetica, Arial, sans-serif" font-size="10px" fill="#1C1C1E">Google Assist</text><text aria-label="labelx: −0.316588444058; labely: 1.54176080875; label: Amazon Connect" role="graphics-symbol" aria-roledescription="text mark" text-anchor="middle" transform="translate(502.03468744157726,340.34009880445524)" font-family="Roboto, -apple-system, Helvetica, Arial, sans-serif" font-size="10px" fill="#1C1C1E">Amazon Connect</text><text aria-label="labelx: 0.825610501093; labely: 0.173170930932; label: Azure Com + OpenAI" role="graphics-symbol" aria-roledescription="text mark" text-anchor="middle" transform="translate(602.9289275965422,443.8967328927879)" font-family="Roboto, -apple-system, Helvetica, Arial, sans-serif" font-size="10px" fill="#1C1C1E">Azure Com + OpenAI</text><text aria-label="labelx: −1.59969568638; labely: 0.197573099217; label: NICE Enlighten AI" role="graphics-symbol" aria-roledescription="text mark" text-anchor="middle" transform="translate(388.69354770310235,442.05030215927184)" font-family="Roboto, -apple-system, Helvetica, Arial, sans-serif" font-size="10px" fill="#1C1C1E">NICE Enlighten AI</text><text aria-label="labelx: −1.16947889671; labely: 1.2275483439; label: Genesys AI" role="graphics-symbol" aria-roledescription="text mark" text-anchor="middle" transform="translate(426.6960307910243,364.115508644969)" font-family="Roboto, -apple-system, Helvetica, Arial, sans-serif" font-size="10px" fill="#1C1C1E">Genesys AI</text><text aria-label="labelx: −0.794162131185; labely: 0.447762150314; label: Talkdesk Copilot" role="graphics-symbol" aria-roledescription="text mark" text-anchor="middle" transform="translate(459.8490117453362,423.1193306262603)" font-family="Roboto, -apple-system, Helvetica, Arial, sans-serif" font-size="10px" fill="#1C1C1E">Talkdesk Copilot</text><text aria-label="labelx: −1.85981170546; labely: −0.553821017127; label: Five9 AI" role="graphics-symbol" aria-roledescription="text mark" text-anchor="middle" transform="translate(365.7166326840422,498.90579029592027)" font-family="Roboto, -apple-system, Helvetica, Arial, sans-serif" font-size="10px" fill="#1C1C1E">Five9 AI</text><text aria-label="labelx: −0.473631344837; labely: −0.00372891959479; label: Dialpad AI Contact" role="graphics-symbol" aria-roledescription="text mark" text-anchor="middle" transform="translate(488.16256453938155,457.28215491600605)" font-family="Roboto, -apple-system, Helvetica, Arial, sans-serif" font-size="10px" fill="#1C1C1E">Dialpad AI Contact</text><text aria-label="labelx: −0.915975762644; labely: −1.11778717743; label: Aircall AI" role="graphics-symbol" aria-roledescription="text mark" text-anchor="middle" transform="translate(449.08880763307224,541.5792297587152)" font-family="Roboto, -apple-system, Helvetica, Arial, sans-serif" font-size="10px" fill="#1C1C1E">Aircall AI</text><text aria-label="labelx: 0.862815569047; labely: 1.9743374629; label: Diabolocom / Zaion" role="graphics-symbol" aria-roledescription="text mark" text-anchor="middle" transform="translate(606.2153752657908,307.6084653070535)" font-family="Roboto, -apple-system, Helvetica, Arial, sans-serif" font-size="10px" fill="#1C1C1E">Diabolocom / Zaion</text><text aria-label="labelx: 0.602699549963; labely: 1.22294334656; label: Kwak.ai" role="graphics-symbol" aria-roledescription="text mark" text-anchor="middle" transform="translate(583.2384602467306,364.46395344370205)" font-family="Roboto, -apple-system, Helvetica, Arial, sans-serif" font-size="10px" fill="#1C1C1E">Kwak.ai</text><text aria-label="labelx: 0.496266554543; labely: 1.43010872891; label: Allo-Media" role="graphics-symbol" aria-roledescription="text mark" text-anchor="middle" transform="translate(573.8368789845932,348.7884395121696)" font-family="Roboto, -apple-system, Helvetica, Arial, sans-serif" font-size="10px" fill="#1C1C1E">Allo-Media</text><text aria-label="labelx: 0.941845145987; labely: −0.813780645008; label: Gladia" role="graphics-symbol" aria-roledescription="text mark" text-anchor="middle" transform="translate(613.1963212288802,518.5760688056117)" font-family="Roboto, -apple-system, Helvetica, Arial, sans-serif" font-size="10px" fill="#1C1C1E">Gladia</text><text aria-label="labelx: 0.311341914849; labely: −0.570451963551; label: pyannoteAI" role="graphics-symbol" aria-roledescription="text mark" text-anchor="middle" transform="translate(557.5018691449878,500.1641985753341)" font-family="Roboto, -apple-system, Helvetica, Arial, sans-serif" font-size="10px" fill="#1C1C1E">pyannoteAI</text><text aria-label="labelx: 0.190525462379; labely: −1.12646836271; label: OpenAI Realtime" role="graphics-symbol" aria-roledescription="text mark" text-anchor="middle" transform="translate(546.8297491768386,542.2361061116599)" font-family="Roboto, -apple-system, Helvetica, Arial, sans-serif" font-size="10px" fill="#1C1C1E">OpenAI Realtime</text><text aria-label="labelx: 0.190525462379; labely: −1.53705221825; label: Anthropic Claude" role="graphics-symbol" aria-roledescription="text mark" text-anchor="middle" transform="translate(546.8297491768386,573.3036178473818)" font-family="Roboto, -apple-system, Helvetica, Arial, sans-serif" font-size="10px" fill="#1C1C1E">Anthropic Claude</text><text aria-label="labelx: 2.17366061249; labely: −0.826799447418; label: Whisper / LangChain" role="graphics-symbol" aria-roledescription="text mark" text-anchor="middle" transform="translate(722.0066874368171,519.56115818796)" font-family="Roboto, -apple-system, Helvetica, Arial, sans-serif" font-size="10px" fill="#1C1C1E">Whisper / LangChain</text><text aria-label="labelx: 2.77636358792; labely: 0.513486786069; label: pyannote OSS + Ollama" role="graphics-symbol" aria-roledescription="text mark" text-anchor="middle" transform="translate(775.2454502664644,418.14616652075017)" font-family="Roboto, -apple-system, Helvetica, Arial, sans-serif" font-size="10px" fill="#1C1C1E">pyannote OSS + Ollama</text><text aria-label="labelx: 2.23877469527; labely: −0.0714751667483; label: LiveKit Agents" role="graphics-symbol" aria-roledescription="text mark" text-anchor="middle" transform="translate(727.7584314158739,462.408287617289)" font-family="Roboto, -apple-system, Helvetica, Arial, sans-serif" font-size="10px" fill="#1C1C1E">LiveKit Agents</text><text aria-label="labelx: 2.23877469527; labely: −0.482059022286; label: pipecat" role="graphics-symbol" aria-roledescription="text mark" text-anchor="middle" transform="translate(727.7584314158739,493.4757993530109)" font-family="Roboto, -apple-system, Helvetica, Arial, sans-serif" font-size="10px" fill="#1C1C1E">pipecat</text><text aria-label="labelx: 1.15908392336; labely: −1.47449380701; label: Vocode" role="graphics-symbol" aria-roledescription="text mark" text-anchor="middle" transform="translate(632.3857465632518,568.5700313972408)" font-family="Roboto, -apple-system, Helvetica, Arial, sans-serif" font-size="10px" fill="#1C1C1E">Vocode</text><text aria-label="labelx: 1.42111351195; labely: −0.405747230996; label: Rasa Pro CALM" role="graphics-symbol" aria-roledescription="text mark" text-anchor="middle" transform="translate(655.5316935552524,487.7015404787069)" font-family="Roboto, -apple-system, Helvetica, Arial, sans-serif" font-size="10px" fill="#1C1C1E">Rasa Pro CALM</text><text aria-label="labelx: 1.10801103821; labely: −2.2389664704; label: OpenOats" role="graphics-symbol" aria-roledescription="text mark" text-anchor="middle" transform="translate(627.874308375523,626.4151295933419)" font-family="Roboto, -apple-system, Helvetica, Arial, sans-serif" font-size="10px" fill="#1C1C1E">OpenOats</text><text aria-label="labelx: 0.808489675996; labely: −1.2999346085; label: Open Granola" role="graphics-symbol" aria-roledescription="text mark" text-anchor="middle" transform="translate(601.4165880463229,555.3617187101795)" font-family="Roboto, -apple-system, Helvetica, Arial, sans-serif" font-size="10px" fill="#1C1C1E">Open Granola</text></g><g class="mark-group role-legend" role="graphics-symbol" aria-roledescription="legend" aria-label="Symbol legend titled 'Approaches' for fill color with 32 values: Sidekick, Diabolocom / Zaion, Allo-Media, Google Assist, Amazon Connect, ending with OpenOats"><g transform="translate(1078,0)"><path class="background" aria-hidden="true" d="M0,0h110v525h-110Z" pointer-events="none"/><g><g class="mark-group role-legend-entry"><g transform="translate(0,16)"><path class="background" aria-hidden="true" d="M0,0h0v0h0Z" pointer-events="none"/><g><g class="mark-group role-scope" role="graphics-object" aria-roledescription="group mark container"><g transform="translate(0,0)"><path class="background" aria-hidden="true" d="M0,0h109.74853515625v12.5h-109.74853515625Z" pointer-events="none" opacity="1"/><g><g class="mark-symbol role-legend-symbol" pointer-events="none"><path transform="translate(6,6)" d="M5,0A5,5,0,1,1,-5,0A5,5,0,1,1,5,0" fill="#FF3B30" stroke="white" stroke-width="1.5" opacity="1"/></g><g class="mark-text role-legend-label" pointer-events="none"><text text-anchor="start" transform="translate(16,9)" font-family="Roboto, -apple-system, Helvetica, Arial, sans-serif" font-size="9px" fill="#000" opacity="1">Sidekick</text></g></g><path class="foreground" aria-hidden="true" d="" pointer-events="none" display="none"/></g><g transform="translate(0,16)"><path class="background" aria-hidden="true" d="M0,0h109.74853515625v12.5h-109.74853515625Z" pointer-events="none" opacity="1"/><g><g class="mark-symbol role-legend-symbol" pointer-events="none"><path transform="translate(6,6)" d="M5,0A5,5,0,1,1,-5,0A5,5,0,1,1,5,0" fill="#A0BBFF" stroke="white" stroke-width="1.5" opacity="1"/></g><g class="mark-text role-legend-label" pointer-events="none"><text text-anchor="start" transform="translate(16,9)" font-family="Roboto, -apple-system, Helvetica, Arial, sans-serif" font-size="9px" fill="#000" opacity="1">Diabolocom / Zaion</text></g></g><path class="foreground" aria-hidden="true" d="" pointer-events="none" display="none"/></g><g transform="translate(0,32)"><path class="background" aria-hidden="true" d="M0,0h109.74853515625v12.5h-109.74853515625Z" pointer-events="none" opacity="1"/><g><g class="mark-symbol role-legend-symbol" pointer-events="none"><path transform="translate(6,6)" d="M5,0A5,5,0,1,1,-5,0A5,5,0,1,1,5,0" fill="#908FE5" stroke="white" stroke-width="1.5" opacity="1"/></g><g class="mark-text role-legend-label" pointer-events="none"><text text-anchor="start" transform="translate(16,9)" font-family="Roboto, -apple-system, Helvetica, Arial, sans-serif" font-size="9px" fill="#000" opacity="1">Allo-Media</text></g></g><path class="foreground" aria-hidden="true" d="" pointer-events="none" display="none"/></g><g transform="translate(0,48)"><path class="background" aria-hidden="true" d="M0,0h109.74853515625v12.5h-109.74853515625Z" pointer-events="none" opacity="1"/><g><g class="mark-symbol role-legend-symbol" pointer-events="none"><path transform="translate(6,6)" d="M5,0A5,5,0,1,1,-5,0A5,5,0,1,1,5,0" fill="#AF97EE" stroke="white" stroke-width="1.5" opacity="1"/></g><g class="mark-text role-legend-label" pointer-events="none"><text text-anchor="start" transform="translate(16,9)" font-family="Roboto, -apple-system, Helvetica, Arial, sans-serif" font-size="9px" fill="#000" opacity="1">Google Assist</text></g></g><path class="foreground" aria-hidden="true" d="" pointer-events="none" display="none"/></g><g transform="translate(0,64)"><path class="background" aria-hidden="true" d="M0,0h109.74853515625v12.5h-109.74853515625Z" pointer-events="none" opacity="1"/><g><g class="mark-symbol role-legend-symbol" pointer-events="none"><path transform="translate(6,6)" d="M5,0A5,5,0,1,1,-5,0A5,5,0,1,1,5,0" fill="#C396E9" stroke="white" stroke-width="1.5" opacity="1"/></g><g class="mark-text role-legend-label" pointer-events="none"><text text-anchor="start" transform="translate(16,9)" font-family="Roboto, -apple-system, Helvetica, Arial, sans-serif" font-size="9px" fill="#000" opacity="1">Amazon Connect</text></g></g><path class="foreground" aria-hidden="true" d="" pointer-events="none" display="none"/></g><g transform="translate(0,80)"><path class="background" aria-hidden="true" d="M0,0h109.74853515625v12.5h-109.74853515625Z" pointer-events="none" opacity="1"/><g><g class="mark-symbol role-legend-symbol" pointer-events="none"><path transform="translate(6,6)" d="M5,0A5,5,0,1,1,-5,0A5,5,0,1,1,5,0" fill="#B97BC4" stroke="white" stroke-width="1.5" opacity="1"/></g><g class="mark-text role-legend-label" pointer-events="none"><text text-anchor="start" transform="translate(16,9)" font-family="Roboto, -apple-system, Helvetica, Arial, sans-serif" font-size="9px" fill="#000" opacity="1">Genesys AI</text></g></g><path class="foreground" aria-hidden="true" d="" pointer-events="none" display="none"/></g><g transform="translate(0,96)"><path class="background" aria-hidden="true" d="M0,0h109.74853515625v12.5h-109.74853515625Z" pointer-events="none" opacity="1"/><g><g class="mark-symbol role-legend-symbol" pointer-events="none"><path transform="translate(6,6)" d="M5,0A5,5,0,1,1,-5,0A5,5,0,1,1,5,0" fill="#63D2FF" stroke="white" stroke-width="1.5" opacity="1"/></g><g class="mark-text role-legend-label" pointer-events="none"><text text-anchor="start" transform="translate(16,9)" font-family="Roboto, -apple-system, Helvetica, Arial, sans-serif" font-size="9px" fill="#000" opacity="1">pyannote OSS + Ollama</text></g></g><path class="foreground" aria-hidden="true" d="" pointer-events="none" display="none"/></g><g transform="translate(0,112)"><path class="background" aria-hidden="true" d="M0,0h109.74853515625v12.5h-109.74853515625Z" pointer-events="none" opacity="1"/><g><g class="mark-symbol role-legend-symbol" pointer-events="none"><path transform="translate(6,6)" d="M5,0A5,5,0,1,1,-5,0A5,5,0,1,1,5,0" fill="#598ED8" stroke="white" stroke-width="1.5" opacity="1"/></g><g class="mark-text role-legend-label" pointer-events="none"><text text-anchor="start" transform="translate(16,9)" font-family="Roboto, -apple-system, Helvetica, Arial, sans-serif" font-size="9px" fill="#000" opacity="1">Kwak.ai</text></g></g><path class="foreground" aria-hidden="true" d="" pointer-events="none" display="none"/></g><g transform="translate(0,128)"><path class="background" aria-hidden="true" d="M0,0h109.74853515625v12.5h-109.74853515625Z" pointer-events="none" opacity="1"/><g><g class="mark-symbol role-legend-symbol" pointer-events="none"><path transform="translate(6,6)" d="M5,0A5,5,0,1,1,-5,0A5,5,0,1,1,5,0" fill="#68BCFD" stroke="white" stroke-width="1.5" opacity="1"/></g><g class="mark-text role-legend-label" pointer-events="none"><text text-anchor="start" transform="translate(16,9)" font-family="Roboto, -apple-system, Helvetica, Arial, sans-serif" font-size="9px" fill="#000" opacity="1">Azure Com + OpenAI</text></g></g><path class="foreground" aria-hidden="true" d="" pointer-events="none" display="none"/></g><g transform="translate(0,144)"><path class="background" aria-hidden="true" d="M0,0h109.74853515625v12.5h-109.74853515625Z" pointer-events="none" opacity="1"/><g><g class="mark-symbol role-legend-symbol" pointer-events="none"><path transform="translate(6,6)" d="M5,0A5,5,0,1,1,-5,0A5,5,0,1,1,5,0" fill="#EC9BDB" stroke="white" stroke-width="1.5" opacity="1"/></g><g class="mark-text role-legend-label" pointer-events="none"><text text-anchor="start" transform="translate(16,9)" font-family="Roboto, -apple-system, Helvetica, Arial, sans-serif" font-size="9px" fill="#000" opacity="1">Talkdesk Copilot</text></g></g><path class="foreground" aria-hidden="true" d="" pointer-events="none" display="none"/></g><g transform="translate(0,160)"><path class="background" aria-hidden="true" d="M0,0h109.74853515625v12.5h-109.74853515625Z" pointer-events="none" opacity="1"/><g><g class="mark-symbol role-legend-symbol" pointer-events="none"><path transform="translate(6,6)" d="M5,0A5,5,0,1,1,-5,0A5,5,0,1,1,5,0" fill="#AF52DE" stroke="white" stroke-width="1.5" opacity="1"/></g><g class="mark-text role-legend-label" pointer-events="none"><text text-anchor="start" transform="translate(16,9)" font-family="Roboto, -apple-system, Helvetica, Arial, sans-serif" font-size="9px" fill="#000" opacity="1">Cresta Assist</text></g></g><path class="foreground" aria-hidden="true" d="" pointer-events="none" display="none"/></g><g transform="translate(0,176)"><path class="background" aria-hidden="true" d="M0,0h109.74853515625v12.5h-109.74853515625Z" pointer-events="none" opacity="1"/><g><g class="mark-symbol role-legend-symbol" pointer-events="none"><path transform="translate(6,6)" d="M5,0A5,5,0,1,1,-5,0A5,5,0,1,1,5,0" fill="#CF76A7" stroke="white" stroke-width="1.5" opacity="1"/></g><g class="mark-text role-legend-label" pointer-events="none"><text text-anchor="start" transform="translate(16,9)" font-family="Roboto, -apple-system, Helvetica, Arial, sans-serif" font-size="9px" fill="#000" opacity="1">Observe.AI</text></g></g><path class="foreground" aria-hidden="true" d="" pointer-events="none" display="none"/></g><g transform="translate(0,192)"><path class="background" aria-hidden="true" d="M0,0h109.74853515625v12.5h-109.74853515625Z" pointer-events="none" opacity="1"/><g><g class="mark-symbol role-legend-symbol" pointer-events="none"><path transform="translate(6,6)" d="M5,0A5,5,0,1,1,-5,0A5,5,0,1,1,5,0" fill="#0CC0D0" stroke="white" stroke-width="1.5" opacity="1"/></g><g class="mark-text role-legend-label" pointer-events="none"><text text-anchor="start" transform="translate(16,9)" font-family="Roboto, -apple-system, Helvetica, Arial, sans-serif" font-size="9px" fill="#000" opacity="1">LiveKit Agents</text></g></g><path class="foreground" aria-hidden="true" d="" pointer-events="none" display="none"/></g><g transform="translate(0,208)"><path class="background" aria-hidden="true" d="M0,0h109.74853515625v12.5h-109.74853515625Z" pointer-events="none" opacity="1"/><g><g class="mark-symbol role-legend-symbol" pointer-events="none"><path transform="translate(6,6)" d="M5,0A5,5,0,1,1,-5,0A5,5,0,1,1,5,0" fill="#EAB258" stroke="white" stroke-width="1.5" opacity="1"/></g><g class="mark-text role-legend-label" pointer-events="none"><text text-anchor="start" transform="translate(16,9)" font-family="Roboto, -apple-system, Helvetica, Arial, sans-serif" font-size="9px" fill="#000" opacity="1">Dialpad AI Contact</text></g></g><path class="foreground" aria-hidden="true" d="" pointer-events="none" display="none"/></g><g transform="translate(0,224)"><path class="background" aria-hidden="true" d="M0,0h109.74853515625v12.5h-109.74853515625Z" pointer-events="none" opacity="1"/><g><g class="mark-symbol role-legend-symbol" pointer-events="none"><path transform="translate(6,6)" d="M5,0A5,5,0,1,1,-5,0A5,5,0,1,1,5,0" fill="#F28EAE" stroke="white" stroke-width="1.5" opacity="1"/></g><g class="mark-text role-legend-label" pointer-events="none"><text text-anchor="start" transform="translate(16,9)" font-family="Roboto, -apple-system, Helvetica, Arial, sans-serif" font-size="9px" fill="#000" opacity="1">NICE Enlighten AI</text></g></g><path class="foreground" aria-hidden="true" d="" pointer-events="none" display="none"/></g><g transform="translate(0,240)"><path class="background" aria-hidden="true" d="M0,0h109.74853515625v12.5h-109.74853515625Z" pointer-events="none" opacity="1"/><g><g class="mark-symbol role-legend-symbol" pointer-events="none"><path transform="translate(6,6)" d="M5,0A5,5,0,1,1,-5,0A5,5,0,1,1,5,0" fill="#E47E8B" stroke="white" stroke-width="1.5" opacity="1"/></g><g class="mark-text role-legend-label" pointer-events="none"><text text-anchor="start" transform="translate(16,9)" font-family="Roboto, -apple-system, Helvetica, Arial, sans-serif" font-size="9px" fill="#000" opacity="1">Cogito Coach</text></g></g><path class="foreground" aria-hidden="true" d="" pointer-events="none" display="none"/></g><g transform="translate(0,256)"><path class="background" aria-hidden="true" d="M0,0h109.74853515625v12.5h-109.74853515625Z" pointer-events="none" opacity="1"/><g><g class="mark-symbol role-legend-symbol" pointer-events="none"><path transform="translate(6,6)" d="M5,0A5,5,0,1,1,-5,0A5,5,0,1,1,5,0" fill="#EA857C" stroke="white" stroke-width="1.5" opacity="1"/></g><g class="mark-text role-legend-label" pointer-events="none"><text text-anchor="start" transform="translate(16,9)" font-family="Roboto, -apple-system, Helvetica, Arial, sans-serif" font-size="9px" fill="#000" opacity="1">ASAPP GenAgent</text></g></g><path class="foreground" aria-hidden="true" d="" pointer-events="none" display="none"/></g><g transform="translate(0,272)"><path class="background" aria-hidden="true" d="M0,0h109.74853515625v12.5h-109.74853515625Z" pointer-events="none" opacity="1"/><g><g class="mark-symbol role-legend-symbol" pointer-events="none"><path transform="translate(6,6)" d="M5,0A5,5,0,1,1,-5,0A5,5,0,1,1,5,0" fill="#FC9B7C" stroke="white" stroke-width="1.5" opacity="1"/></g><g class="mark-text role-legend-label" pointer-events="none"><text text-anchor="start" transform="translate(16,9)" font-family="Roboto, -apple-system, Helvetica, Arial, sans-serif" font-size="9px" fill="#000" opacity="1">Salesforce Voice</text></g></g><path class="foreground" aria-hidden="true" d="" pointer-events="none" display="none"/></g><g transform="translate(0,288)"><path class="background" aria-hidden="true" d="M0,0h109.74853515625v12.5h-109.74853515625Z" pointer-events="none" opacity="1"/><g><g class="mark-symbol role-legend-symbol" pointer-events="none"><path transform="translate(6,6)" d="M5,0A5,5,0,1,1,-5,0A5,5,0,1,1,5,0" fill="#00A0C2" stroke="white" stroke-width="1.5" opacity="1"/></g><g class="mark-text role-legend-label" pointer-events="none"><text text-anchor="start" transform="translate(16,9)" font-family="Roboto, -apple-system, Helvetica, Arial, sans-serif" font-size="9px" fill="#000" opacity="1">pipecat</text></g></g><path class="foreground" aria-hidden="true" d="" pointer-events="none" display="none"/></g><g transform="translate(0,304)"><path class="background" aria-hidden="true" d="M0,0h109.74853515625v12.5h-109.74853515625Z" pointer-events="none" opacity="1"/><g><g class="mark-symbol role-legend-symbol" pointer-events="none"><path transform="translate(6,6)" d="M5,0A5,5,0,1,1,-5,0A5,5,0,1,1,5,0" fill="#00B7B4" stroke="white" stroke-width="1.5" opacity="1"/></g><g class="mark-text role-legend-label" pointer-events="none"><text text-anchor="start" transform="translate(16,9)" font-family="Roboto, -apple-system, Helvetica, Arial, sans-serif" font-size="9px" fill="#000" opacity="1">Rasa Pro CALM</text></g></g><path class="foreground" aria-hidden="true" d="" pointer-events="none" display="none"/></g><g transform="translate(0,320)"><path class="background" aria-hidden="true" d="M0,0h109.74853515625v12.5h-109.74853515625Z" pointer-events="none" opacity="1"/><g><g class="mark-symbol role-legend-symbol" pointer-events="none"><path transform="translate(6,6)" d="M5,0A5,5,0,1,1,-5,0A5,5,0,1,1,5,0" fill="#08B59F" stroke="white" stroke-width="1.5" opacity="1"/></g><g class="mark-text role-legend-label" pointer-events="none"><text text-anchor="start" transform="translate(16,9)" font-family="Roboto, -apple-system, Helvetica, Arial, sans-serif" font-size="9px" fill="#000" opacity="1">pyannoteAI</text></g></g><path class="foreground" aria-hidden="true" d="" pointer-events="none" display="none"/></g><g transform="translate(0,336)"><path class="background" aria-hidden="true" d="M0,0h109.74853515625v12.5h-109.74853515625Z" pointer-events="none" opacity="1"/><g><g class="mark-symbol role-legend-symbol" pointer-events="none"><path transform="translate(6,6)" d="M5,0A5,5,0,1,1,-5,0A5,5,0,1,1,5,0" fill="#0B9D76" stroke="white" stroke-width="1.5" opacity="1"/></g><g class="mark-text role-legend-label" pointer-events="none"><text text-anchor="start" transform="translate(16,9)" font-family="Roboto, -apple-system, Helvetica, Arial, sans-serif" font-size="9px" fill="#000" opacity="1">Gladia</text></g></g><path class="foreground" aria-hidden="true" d="" pointer-events="none" display="none"/></g><g transform="translate(0,352)"><path class="background" aria-hidden="true" d="M0,0h109.74853515625v12.5h-109.74853515625Z" pointer-events="none" opacity="1"/><g><g class="mark-symbol role-legend-symbol" pointer-events="none"><path transform="translate(6,6)" d="M5,0A5,5,0,1,1,-5,0A5,5,0,1,1,5,0" fill="#FAB066" stroke="white" stroke-width="1.5" opacity="1"/></g><g class="mark-text role-legend-label" pointer-events="none"><text text-anchor="start" transform="translate(16,9)" font-family="Roboto, -apple-system, Helvetica, Arial, sans-serif" font-size="9px" fill="#000" opacity="1">Level (QA + real-time)</text></g></g><path class="foreground" aria-hidden="true" d="" pointer-events="none" display="none"/></g><g transform="translate(0,368)"><path class="background" aria-hidden="true" d="M0,0h109.74853515625v12.5h-109.74853515625Z" pointer-events="none" opacity="1"/><g><g class="mark-symbol role-legend-symbol" pointer-events="none"><path transform="translate(6,6)" d="M5,0A5,5,0,1,1,-5,0A5,5,0,1,1,5,0" fill="#C5723D" stroke="white" stroke-width="1.5" opacity="1"/></g><g class="mark-text role-legend-label" pointer-events="none"><text text-anchor="start" transform="translate(16,9)" font-family="Roboto, -apple-system, Helvetica, Arial, sans-serif" font-size="9px" fill="#000" opacity="1">Five9 AI</text></g></g><path class="foreground" aria-hidden="true" d="" pointer-events="none" display="none"/></g><g transform="translate(0,384)"><path class="background" aria-hidden="true" d="M0,0h109.74853515625v12.5h-109.74853515625Z" pointer-events="none" opacity="1"/><g><g class="mark-symbol role-legend-symbol" pointer-events="none"><path transform="translate(6,6)" d="M5,0A5,5,0,1,1,-5,0A5,5,0,1,1,5,0" fill="#007AFF" stroke="white" stroke-width="1.5" opacity="1"/></g><g class="mark-text role-legend-label" pointer-events="none"><text text-anchor="start" transform="translate(16,9)" font-family="Roboto, -apple-system, Helvetica, Arial, sans-serif" font-size="9px" fill="#000" opacity="1">Whisper / LangChain</text></g></g><path class="foreground" aria-hidden="true" d="" pointer-events="none" display="none"/></g><g transform="translate(0,400)"><path class="background" aria-hidden="true" d="M0,0h109.74853515625v12.5h-109.74853515625Z" pointer-events="none" opacity="1"/><g><g class="mark-symbol role-legend-symbol" pointer-events="none"><path transform="translate(6,6)" d="M5,0A5,5,0,1,1,-5,0A5,5,0,1,1,5,0" fill="#75B76C" stroke="white" stroke-width="1.5" opacity="1"/></g><g class="mark-text role-legend-label" pointer-events="none"><text text-anchor="start" transform="translate(16,9)" font-family="Roboto, -apple-system, Helvetica, Arial, sans-serif" font-size="9px" fill="#000" opacity="1">Open Granola</text></g></g><path class="foreground" aria-hidden="true" d="" pointer-events="none" display="none"/></g><g transform="translate(0,416)"><path class="background" aria-hidden="true" d="M0,0h109.74853515625v12.5h-109.74853515625Z" pointer-events="none" opacity="1"/><g><g class="mark-symbol role-legend-symbol" pointer-events="none"><path transform="translate(6,6)" d="M5,0A5,5,0,1,1,-5,0A5,5,0,1,1,5,0" fill="#BEB24A" stroke="white" stroke-width="1.5" opacity="1"/></g><g class="mark-text role-legend-label" pointer-events="none"><text text-anchor="start" transform="translate(16,9)" font-family="Roboto, -apple-system, Helvetica, Arial, sans-serif" font-size="9px" fill="#000" opacity="1">OpenAI Realtime</text></g></g><path class="foreground" aria-hidden="true" d="" pointer-events="none" display="none"/></g><g transform="translate(0,432)"><path class="background" aria-hidden="true" d="M0,0h109.74853515625v12.5h-109.74853515625Z" pointer-events="none" opacity="1"/><g><g class="mark-symbol role-legend-symbol" pointer-events="none"><path transform="translate(6,6)" d="M5,0A5,5,0,1,1,-5,0A5,5,0,1,1,5,0" fill="#B2C05D" stroke="white" stroke-width="1.5" opacity="1"/></g><g class="mark-text role-legend-label" pointer-events="none"><text text-anchor="start" transform="translate(16,9)" font-family="Roboto, -apple-system, Helvetica, Arial, sans-serif" font-size="9px" fill="#000" opacity="1">Anthropic Claude</text></g></g><path class="foreground" aria-hidden="true" d="" pointer-events="none" display="none"/></g><g transform="translate(0,448)"><path class="background" aria-hidden="true" d="M0,0h109.74853515625v12.5h-109.74853515625Z" pointer-events="none" opacity="1"/><g><g class="mark-symbol role-legend-symbol" pointer-events="none"><path transform="translate(6,6)" d="M5,0A5,5,0,1,1,-5,0A5,5,0,1,1,5,0" fill="#B18F23" stroke="white" stroke-width="1.5" opacity="1"/></g><g class="mark-text role-legend-label" pointer-events="none"><text text-anchor="start" transform="translate(16,9)" font-family="Roboto, -apple-system, Helvetica, Arial, sans-serif" font-size="9px" fill="#000" opacity="1">Aircall AI</text></g></g><path class="foreground" aria-hidden="true" d="" pointer-events="none" display="none"/></g><g transform="translate(0,464)"><path class="background" aria-hidden="true" d="M0,0h109.74853515625v12.5h-109.74853515625Z" pointer-events="none" opacity="1"/><g><g class="mark-symbol role-legend-symbol" pointer-events="none"><path transform="translate(6,6)" d="M5,0A5,5,0,1,1,-5,0A5,5,0,1,1,5,0" fill="#A52A2A" stroke="white" stroke-width="1.5" opacity="1"/></g><g class="mark-text role-legend-label" pointer-events="none"><text text-anchor="start" transform="translate(16,9)" font-family="Roboto, -apple-system, Helvetica, Arial, sans-serif" font-size="9px" fill="#000" opacity="1">Zendesk AI Voice</text></g></g><path class="foreground" aria-hidden="true" d="" pointer-events="none" display="none"/></g><g transform="translate(0,480)"><path class="background" aria-hidden="true" d="M0,0h109.74853515625v12.5h-109.74853515625Z" pointer-events="none" opacity="1"/><g><g class="mark-symbol role-legend-symbol" pointer-events="none"><path transform="translate(6,6)" d="M5,0A5,5,0,1,1,-5,0A5,5,0,1,1,5,0" fill="#3E9E65" stroke="white" stroke-width="1.5" opacity="1"/></g><g class="mark-text role-legend-label" pointer-events="none"><text text-anchor="start" transform="translate(16,9)" font-family="Roboto, -apple-system, Helvetica, Arial, sans-serif" font-size="9px" fill="#000" opacity="1">Vocode</text></g></g><path class="foreground" aria-hidden="true" d="" pointer-events="none" display="none"/></g><g transform="translate(0,496)"><path class="background" aria-hidden="true" d="M0,0h109.74853515625v12.5h-109.74853515625Z" pointer-events="none" opacity="1"/><g><g class="mark-symbol role-legend-symbol" pointer-events="none"><path transform="translate(6,6)" d="M5,0A5,5,0,1,1,-5,0A5,5,0,1,1,5,0" fill="#7AA047" stroke="white" stroke-width="1.5" opacity="1"/></g><g class="mark-text role-legend-label" pointer-events="none"><text text-anchor="start" transform="translate(16,9)" font-family="Roboto, -apple-system, Helvetica, Arial, sans-serif" font-size="9px" fill="#000" opacity="1">OpenOats</text></g></g><path class="foreground" aria-hidden="true" d="" pointer-events="none" display="none"/></g></g></g><path class="foreground" aria-hidden="true" d="" pointer-events="none" display="none"/></g></g><g class="mark-text role-legend-title" pointer-events="none"><text text-anchor="start" transform="translate(0,9)" font-family="Roboto, -apple-system, Helvetica, Arial, sans-serif" font-size="11px" font-weight="bold" fill="#000" opacity="1">Approaches</text></g></g><path class="foreground" aria-hidden="true" d="" pointer-events="none" display="none"/></g></g><g class="mark-group role-title"><g transform="translate(530,-22)"><path class="background" aria-hidden="true" d="M0,0h0v0h0Z" pointer-events="none"/><g><g class="mark-text role-title-text" role="graphics-symbol" aria-roledescription="title" aria-label="Title text 'Approaches in our quadrant'" pointer-events="none"><text text-anchor="middle" transform="translate(0,14)" font-family="Roboto, -apple-system, Helvetica, Arial, sans-serif" font-size="18px" font-weight="bold" fill="#000" opacity="1">Approaches in our quadrant</text></g></g><path class="foreground" aria-hidden="true" d="" pointer-events="none" display="none"/></g></g></g><path class="foreground" aria-hidden="true" d="" display="none"/></g></g></g></svg>