<svg xmlns="http://www.w3.org/2000/svg" xmlns:xlink="http://www.w3.org/1999/xlink" version="1.1" class="marks" width="1163" height="954" viewBox="0 0 1163 954"><rect width="1163" height="954" fill="white"/><g fill="none" stroke-miterlimit="10" transform="translate(12,34)"><g class="mark-group role-frame root" role="graphics-object" aria-roledescription="group mark container"><g transform="translate(0,0)"><path class="background" aria-hidden="true" d="M0,0h1000v908h-1000Z"/><g><g class="mark-group role-axis"><g transform="translate(0.5,908.5)"><path class="background" aria-hidden="true" d="M0,0h0v0h0Z" pointer-events="none"/><g/><path class="foreground" aria-hidden="true" d="" pointer-events="none" display="none"/></g></g><g class="mark-group role-axis"><g transform="translate(0.5,0.5)"><path class="background" aria-hidden="true" d="M0,0h0v0h0Z" pointer-events="none"/><g/><path class="foreground" aria-hidden="true" d="" pointer-events="none" display="none"/></g></g><g class="mark-rule role-mark layer_0_marks" role="graphics-symbol" aria-roledescription="rule mark container"><line transform="translate(46.62640930835682,454)" x2="906.7471813832863" y2="0" stroke="#C7C7CC" stroke-width="1.2" stroke-dasharray="2,4"/></g><g class="mark-rule role-mark layer_1_marks" role="graphics-symbol" aria-roledescription="rule mark container"><line transform="translate(500,857.1775694691513)" x2="0" y2="-806.3551389383026" stroke="#C7C7CC" stroke-width="1.2" stroke-dasharray="2,4"/></g><g class="mark-text role-mark layer_2_marks" role="graphics-object" aria-roledescription="text mark container"><text aria-label="x: 4.53373590692; y: 0.0935411529076; t: Secure" role="graphics-symbol" aria-roledescription="text mark" text-anchor="end" transform="translate(953.3735906916431,440.38307914498614)" font-family="Roboto, -apple-system, Helvetica, Arial, sans-serif" font-size="15px" font-style="italic" fill="#6E6E73">Secure</text></g><g class="mark-text role-mark layer_3_marks" role="graphics-object" aria-roledescription="text mark container"><text aria-label="x: −4.53373590692; y: 0.0935411529076; t: User-Friendly" role="graphics-symbol" aria-roledescription="text mark" text-anchor="start" transform="translate(46.62640930835682,440.38307914498614)" font-family="Roboto, -apple-system, Helvetica, Arial, sans-serif" font-size="15px" font-style="italic" fill="#6E6E73">User-Friendly</text></g><g class="mark-text role-mark layer_4_marks" role="graphics-object" aria-roledescription="text mark container"><text aria-label="x: 0.119387383987; y: 3.55222528167; t: Privacy-Centric" role="graphics-symbol" aria-roledescription="text mark" text-anchor="start" transform="translate(511.9387383987266,62.822430530848735)" font-family="Roboto, -apple-system, Helvetica, Arial, sans-serif" font-size="15px" font-style="italic" fill="#6E6E73">Privacy-Centric</text></g><g class="mark-text role-mark layer_5_marks" role="graphics-object" aria-roledescription="text mark container"><text aria-label="x: 0.119387383987; y: −3.55222528167; t: Cost-Effective" role="graphics-symbol" aria-roledescription="text mark" text-anchor="start" transform="translate(511.9387383987266,854.1775694691513)" font-family="Roboto, -apple-system, Helvetica, Arial, sans-serif" font-size="15px" font-style="italic" fill="#6E6E73">Cost-Effective</text></g><g class="mark-symbol role-mark layer_6_marks" role="graphics-object" aria-roledescription="symbol mark container"><path aria-label="axis1: 2.98468459968; axis2: 2.33852882269; name: Sidekick; role: best" role="graphics-symbol" aria-roledescription="point" transform="translate(798.4684599681652,188.57697862465358)" d="M5.657,0A5.657,5.657,0,1,1,-5.657,0A5.657,5.657,0,1,1,5.657,0" fill="#FF3B30" stroke="white" stroke-width="1" opacity="0.95"/><path aria-label="axis1: −2.98468459968; axis2: −0.121650343895; name: Salesforce Voice; role: competitor" role="graphics-symbol" aria-roledescription="point" transform="translate(201.53154003183462,467.8073140321055)" d="M5.657,0A5.657,5.657,0,1,1,-5.657,0A5.657,5.657,0,1,1,5.657,0" fill="#FE988E" stroke="white" stroke-width="1" opacity="0.95"/><path aria-label="axis1: −2.47983319755; axis2: −0.802160676843; name: Zendesk AI Voice; role: worst" role="graphics-symbol" aria-roledescription="point" transform="translate(252.01668024465766,545.0452368217238)" d="M5.657,0A5.657,5.657,0,1,1,-5.657,0A5.657,5.657,0,1,1,5.657,0" fill="#A52A2A" stroke="white" stroke-width="1" opacity="0.95"/><path aria-label="axis1: −0.778929486222; axis2: 1.08006627756; name: Cresta Assist; role: innovative" role="graphics-symbol" aria-roledescription="point" transform="translate(422.1070513777606,331.4124774972792)" d="M5.657,0A5.657,5.657,0,1,1,-5.657,0A5.657,5.657,0,1,1,5.657,0" fill="#AF52DE" stroke="white" stroke-width="1" opacity="0.95"/><path aria-label="axis1: −1.2849416792; axis2: −0.51973849097; name: Level (QA + real-time); role: competitor" role="graphics-symbol" aria-roledescription="point" transform="translate(371.5058320799865,512.990318725123)" d="M5.657,0A5.657,5.657,0,1,1,-5.657,0A5.657,5.657,0,1,1,5.657,0" fill="#FAB066" stroke="white" stroke-width="1" opacity="0.95"/><path aria-label="axis1: −0.949030256813; axis2: 0.801485149218; name: Observe.AI; role: competitor" role="graphics-symbol" aria-roledescription="point" transform="translate(405.09697431867176,363.0314355637606)" d="M5.657,0A5.657,5.657,0,1,1,-5.657,0A5.657,5.657,0,1,1,5.657,0" fill="#C679B7" stroke="white" stroke-width="1" opacity="0.95"/><path aria-label="axis1: −2.24090525015; axis2: −0.0398553438197; name: Cogito Coach; role: competitor" role="graphics-symbol" aria-roledescription="point" transform="translate(275.90947498479704,458.5235815235401)" d="M5.657,0A5.657,5.657,0,1,1,-5.657,0A5.657,5.657,0,1,1,5.657,0" fill="#E07E9E" stroke="white" stroke-width="1" opacity="0.95"/><path aria-label="axis1: −2.24090525015; axis2: −0.0398553438197; name: ASAPP GenAgent; role: competitor" role="graphics-symbol" aria-roledescription="point" transform="translate(275.90947498479704,458.5235815235401)" d="M5.657,0A5.657,5.657,0,1,1,-5.657,0A5.657,5.657,0,1,1,5.657,0" fill="#E98390" stroke="white" stroke-width="1" opacity="0.95"/><path aria-label="axis1: −0.0445996571277; axis2: 2.33852882269; name: Google Assist; role: competitor" role="graphics-symbol" aria-roledescription="point" transform="translate(495.5400342872265,188.57697862465358)" d="M5.657,0A5.657,5.657,0,1,1,-5.657,0A5.657,5.657,0,1,1,5.657,0" fill="#9D9DF4" stroke="white" stroke-width="1" opacity="0.95"/><path aria-label="axis1: −0.108267432298; axis2: 1.44219845646; name: Amazon Connect; role: competitor" role="graphics-symbol" aria-roledescription="point" transform="translate(489.17325677018,290.31047519201655)" d="M5.657,0A5.657,5.657,0,1,1,-5.657,0A5.657,5.657,0,1,1,5.657,0" fill="#B39CF3" stroke="white" stroke-width="1" opacity="0.95"/><path aria-label="axis1: 0.370122451526; axis2: 0.278900506408; name: Azure Com + OpenAI; role: competitor" role="graphics-symbol" aria-roledescription="point" transform="translate(537.0122451526438,422.34479252272394)" d="M5.657,0A5.657,5.657,0,1,1,-5.657,0A5.657,5.657,0,1,1,5.657,0" fill="#50C1F5" stroke="white" stroke-width="1" opacity="0.95"/><path aria-label="axis1: −1.39137467462; axis2: 0.098010746923; name: NICE Enlighten AI; role: competitor" role="graphics-symbol" aria-roledescription="point" transform="translate(360.8625325379443,442.87578022424117)" d="M5.657,0A5.657,5.657,0,1,1,-5.657,0A5.657,5.657,0,1,1,5.657,0" fill="#EB90C0" stroke="white" stroke-width="1" opacity="0.95"/><path aria-label="axis1: −0.961157884946; axis2: 1.12798599161; name: Genesys AI; role: competitor" role="graphics-symbol" aria-roledescription="point" transform="translate(403.884211505403,325.97358995278717)" d="M5.657,0A5.657,5.657,0,1,1,-5.657,0A5.657,5.657,0,1,1,5.657,0" fill="#B97BC4" stroke="white" stroke-width="1" opacity="0.95"/><path aria-label="axis1: −0.585841119425; axis2: 0.758783653558; name: Talkdesk Copilot; role: competitor" role="graphics-symbol" aria-roledescription="point" transform="translate(441.41588805745425,367.8780553211411)" d="M5.657,0A5.657,5.657,0,1,1,-5.657,0A5.657,5.657,0,1,1,5.657,0" fill="#D2A4F8" stroke="white" stroke-width="1" opacity="0.95"/><path aria-label="axis1: −1.6514906937; axis2: −0.65338336942; name: Five9 AI; role: competitor" role="graphics-symbol" aria-roledescription="point" transform="translate(334.8509306295743,528.159012429214)" d="M5.657,0A5.657,5.657,0,1,1,-5.657,0A5.657,5.657,0,1,1,5.657,0" fill="#C5723D" stroke="white" stroke-width="1" opacity="0.95"/><path aria-label="axis1: −0.265310333078; axis2: −0.103291271888; name: Dialpad AI Contact; role: competitor" role="graphics-symbol" aria-roledescription="point" transform="translate(473.4689666922225,465.7235593593427)" d="M5.657,0A5.657,5.657,0,1,1,-5.657,0A5.657,5.657,0,1,1,5.657,0" fill="#FFA080" stroke="white" stroke-width="1" opacity="0.95"/><path aria-label="axis1: −0.707654750885; axis2: −0.806765674183; name: Aircall AI; role: competitor" role="graphics-symbol" aria-roledescription="point" transform="translate(429.234524911495,545.5679040198235)" d="M5.657,0A5.657,5.657,0,1,1,-5.657,0A5.657,5.657,0,1,1,5.657,0" fill="#BE8828" stroke="white" stroke-width="1" opacity="0.95"/><path aria-label="axis1: 1.07113658081; axis2: 1.87477511061; name: Diabolocom / Zaion; role: competitor" role="graphics-symbol" aria-roledescription="point" transform="translate(607.1136580806103,241.2130249459139)" d="M5.657,0A5.657,5.657,0,1,1,-5.657,0A5.657,5.657,0,1,1,5.657,0" fill="#8BC2FF" stroke="white" stroke-width="1" opacity="0.95"/><path aria-label="axis1: 0.811020561722; axis2: 1.12338099427; name: Kwak.ai; role: competitor" role="graphics-symbol" aria-roledescription="point" transform="translate(581.1020561722404,326.4962571508867)" d="M5.657,0A5.657,5.657,0,1,1,-5.657,0A5.657,5.657,0,1,1,5.657,0" fill="#3F94D3" stroke="white" stroke-width="1" opacity="0.95"/><path aria-label="axis1: 0.704587566302; axis2: 1.74113023216; name: Allo-Media; role: competitor" role="graphics-symbol" aria-roledescription="point" transform="translate(570.4587566301981,256.3817186500049)" d="M5.657,0A5.657,5.657,0,1,1,-5.657,0A5.657,5.657,0,1,1,5.657,0" fill="#7C95E8" stroke="white" stroke-width="1" opacity="0.95"/><path aria-label="axis1: 0.851872212467; axis2: −0.708051069533; name: Gladia; role: competitor" role="graphics-symbol" aria-roledescription="point" transform="translate(585.1872212467374,534.3637963919596)" d="M5.657,0A5.657,5.657,0,1,1,-5.657,0A5.657,5.657,0,1,1,5.657,0" fill="#3C9C63" stroke="white" stroke-width="1" opacity="0.95"/><path aria-label="axis1: 0.939795243903; axis2: −0.464722388075; name: pyannoteAI; role: competitor" role="graphics-symbol" aria-roledescription="point" transform="translate(593.9795243903213,506.7459910465434)" d="M5.657,0A5.657,5.657,0,1,1,-5.657,0A5.657,5.657,0,1,1,5.657,0" fill="#37B58C" stroke="white" stroke-width="1" opacity="0.95"/><path aria-label="axis1: 0.398846474139; axis2: −1.226030715; name: OpenAI Realtime; role: competitor" role="graphics-symbol" aria-roledescription="point" transform="translate(539.884647413872,593.1544861528234)" d="M5.657,0A5.657,5.657,0,1,1,-5.657,0A5.657,5.657,0,1,1,5.657,0" fill="#CEAB46" stroke="white" stroke-width="1" opacity="0.95"/><path aria-label="axis1: 0.398846474139; axis2: −1.226030715; name: Anthropic Claude; role: competitor" role="graphics-symbol" aria-roledescription="point" transform="translate(539.884647413872,593.1544861528234)" d="M5.657,0A5.657,5.657,0,1,1,-5.657,0A5.657,5.657,0,1,1,5.657,0" fill="#C5B952" stroke="white" stroke-width="1" opacity="0.95"/><path aria-label="axis1: 2.38198162425; axis2: −0.926361799712; name: Whisper / LangChain; role: trustworthy" role="graphics-symbol" aria-roledescription="point" transform="translate(738.1981624251683,559.1420642672734)" d="M5.657,0A5.657,5.657,0,1,1,-5.657,0A5.657,5.657,0,1,1,5.657,0" fill="#007AFF" stroke="white" stroke-width="1" opacity="0.95"/><path aria-label="axis1: 2.98468459968; axis2: 0.413924433776; name: pyannote OSS + Ollama; role: competitor" role="graphics-symbol" aria-roledescription="point" transform="translate(798.4684599681652,407.0195767664588)" d="M5.657,0A5.657,5.657,0,1,1,-5.657,0A5.657,5.657,0,1,1,5.657,0" fill="#4FD7FA" stroke="white" stroke-width="1" opacity="0.95"/><path aria-label="axis1: 2.44709570703; axis2: −0.171037519042; name: LiveKit Agents; role: competitor" role="graphics-symbol" aria-roledescription="point" transform="translate(744.7095707033459,473.4127584112671)" d="M5.657,0A5.657,5.657,0,1,1,-5.657,0A5.657,5.657,0,1,1,5.657,0" fill="#0EC3C0" stroke="white" stroke-width="1" opacity="0.95"/><path aria-label="axis1: 2.44709570703; axis2: −0.171037519042; name: pipecat; role: competitor" role="graphics-symbol" aria-roledescription="point" transform="translate(744.7095707033459,473.4127584112671)" d="M5.657,0A5.657,5.657,0,1,1,-5.657,0A5.657,5.657,0,1,1,5.657,0" fill="#00A4B4" stroke="white" stroke-width="1" opacity="0.95"/><path aria-label="axis1: 1.36740493512; axis2: −1.57405615931; name: Vocode; role: competitor" role="graphics-symbol" aria-roledescription="point" transform="translate(636.7404935116981,632.6553740811949)" d="M5.657,0A5.657,5.657,0,1,1,-5.657,0A5.657,5.657,0,1,1,5.657,0" fill="#5A9B51" stroke="white" stroke-width="1" opacity="0.95"/><path aria-label="axis1: 1.62943452371; axis2: −0.50530958329; name: Rasa Pro CALM; role: competitor" role="graphics-symbol" aria-roledescription="point" transform="translate(662.9434523705671,511.3526377033937)" d="M5.657,0A5.657,5.657,0,1,1,-5.657,0A5.657,5.657,0,1,1,5.657,0" fill="#11B8A2" stroke="white" stroke-width="1" opacity="0.95"/><path aria-label="axis1: 1.31633204997; axis2: −2.33852882269; name: OpenOats; role: competitor" role="graphics-symbol" aria-roledescription="point" transform="translate(631.6332049972883,719.4230213753465)" d="M5.657,0A5.657,5.657,0,1,1,-5.657,0A5.657,5.657,0,1,1,5.657,0" fill="#8E9A35" stroke="white" stroke-width="1" opacity="0.95"/><path aria-label="axis1: 1.01681068776; axis2: −1.3994969608; name: Open Granola; role: competitor" role="graphics-symbol" aria-roledescription="point" transform="translate(601.6810687755523,612.8429050506029)" d="M5.657,0A5.657,5.657,0,1,1,-5.657,0A5.657,5.657,0,1,1,5.657,0" fill="#8CB25A" stroke="white" stroke-width="1" opacity="0.95"/></g><g class="mark-text role-mark layer_7_marks" role="graphics-object" aria-roledescription="text mark container"><text aria-label="labelx: 2.98468459968; labely: 2.52082443645; label: Sidekick" role="graphics-symbol" aria-roledescription="text mark" text-anchor="middle" transform="translate(798.4684599681652,171.8864264625473)" font-family="Roboto, -apple-system, Helvetica, Arial, sans-serif" font-size="12px" fill="#1C1C1E">Sidekick</text><text aria-label="labelx: −2.98468459968; labely: 0.0606452698678; label: Salesforce Voice" role="graphics-symbol" aria-roledescription="text mark" text-anchor="middle" transform="translate(201.53154003183462,451.1167618699992)" font-family="Roboto, -apple-system, Helvetica, Arial, sans-serif" font-size="12px" fill="#1C1C1E">Salesforce Voice</text><text aria-label="labelx: −2.47983319755; labely: −0.61986506308; label: Zendesk AI Voice" role="graphics-symbol" aria-roledescription="text mark" text-anchor="middle" transform="translate(252.01668024465766,528.3546846596175)" font-family="Roboto, -apple-system, Helvetica, Arial, sans-serif" font-size="12px" fill="#1C1C1E">Zendesk AI Voice</text><text aria-label="labelx: −0.200749650837; labely: 1.08006627756; label: Cresta Assist" role="graphics-symbol" aria-roledescription="text mark" text-anchor="middle" transform="translate(479.9250349163048,335.4124774972792)" font-family="Roboto, -apple-system, Helvetica, Arial, sans-serif" font-size="12px" fill="#1C1C1E">Cresta Assist</text><text aria-label="labelx: −0.384774069201; labely: −0.51973849097; label: Level (QA + real-time)" role="graphics-symbol" aria-roledescription="text mark" text-anchor="middle" transform="translate(461.5225930798964,516.990318725123)" font-family="Roboto, -apple-system, Helvetica, Arial, sans-serif" font-size="12px" fill="#1C1C1E">Level (QA + real-time)</text><text aria-label="labelx: −1.41988083399; labely: 0.801485149218; label: Observe.AI" role="graphics-symbol" aria-roledescription="text mark" text-anchor="middle" transform="translate(358.0119166005827,367.0314355637606)" font-family="Roboto, -apple-system, Helvetica, Arial, sans-serif" font-size="12px" fill="#1C1C1E">Observe.AI</text><text aria-label="labelx: −2.24090525015; labely: −0.222150957583; label: Cogito Coach" role="graphics-symbol" aria-roledescription="text mark" text-anchor="middle" transform="translate(275.90947498479704,483.21413368564635)" font-family="Roboto, -apple-system, Helvetica, Arial, sans-serif" font-size="12px" fill="#1C1C1E">Cogito Coach</text><text aria-label="labelx: −0.0445996571277; labely: 2.52082443645; label: Google Assist" role="graphics-symbol" aria-roledescription="text mark" text-anchor="middle" transform="translate(495.5400342872265,171.8864264625473)" font-family="Roboto, -apple-system, Helvetica, Arial, sans-serif" font-size="12px" fill="#1C1C1E">Google Assist</text><text aria-label="labelx: −0.722223687085; labely: 1.62449407022; label: Amazon Connect" role="graphics-symbol" aria-roledescription="text mark" text-anchor="middle" transform="translate(427.777631291484,273.61992302991024)" font-family="Roboto, -apple-system, Helvetica, Arial, sans-serif" font-size="12px" fill="#1C1C1E">Amazon Connect</text><text aria-label="labelx: 0.370122451526; labely: 0.0966048926447; label: Azure Com + OpenAI" role="graphics-symbol" aria-roledescription="text mark" text-anchor="middle" transform="translate(537.0122451526438,447.03534468483025)" font-family="Roboto, -apple-system, Helvetica, Arial, sans-serif" font-size="12px" fill="#1C1C1E">Azure Com + OpenAI</text><text aria-label="labelx: −1.39137467462; labely: 0.280306360686; label: NICE Enlighten AI" role="graphics-symbol" aria-roledescription="text mark" text-anchor="middle" transform="translate(360.8625325379443,426.1852280621349)" font-family="Roboto, -apple-system, Helvetica, Arial, sans-serif" font-size="12px" fill="#1C1C1E">NICE Enlighten AI</text><text aria-label="labelx: −0.961157884946; labely: 1.31028160537; label: Genesys AI" role="graphics-symbol" aria-roledescription="text mark" text-anchor="middle" transform="translate(403.884211505403,309.2830377906809)" font-family="Roboto, -apple-system, Helvetica, Arial, sans-serif" font-size="12px" fill="#1C1C1E">Genesys AI</text><text aria-label="labelx: −0.585841119425; labely: 0.576488039795; label: Talkdesk Copilot" role="graphics-symbol" aria-roledescription="text mark" text-anchor="middle" transform="translate(441.41588805745425,392.5686074832474)" font-family="Roboto, -apple-system, Helvetica, Arial, sans-serif" font-size="12px" fill="#1C1C1E">Talkdesk Copilot</text><text aria-label="labelx: −1.6514906937; labely: −0.835678983183; label: Five9 AI" role="graphics-symbol" aria-roledescription="text mark" text-anchor="middle" transform="translate(334.8509306295743,552.8495645913204)" font-family="Roboto, -apple-system, Helvetica, Arial, sans-serif" font-size="12px" fill="#1C1C1E">Five9 AI</text><text aria-label="labelx: −1.02237226547; labely: −0.103291271888; label: Dialpad AI Contact" role="graphics-symbol" aria-roledescription="text mark" text-anchor="middle" transform="translate(397.7627734529196,469.7235593593427)" font-family="Roboto, -apple-system, Helvetica, Arial, sans-serif" font-size="12px" fill="#1C1C1E">Dialpad AI Contact</text><text aria-label="labelx: −0.707654750885; labely: −0.989061287947; label: Aircall AI" role="graphics-symbol" aria-roledescription="text mark" text-anchor="middle" transform="translate(429.234524911495,570.2584561819298)" font-family="Roboto, -apple-system, Helvetica, Arial, sans-serif" font-size="12px" fill="#1C1C1E">Aircall AI</text><text aria-label="labelx: 1.07113658081; labely: 2.05707072437; label: Diabolocom / Zaion" role="graphics-symbol" aria-roledescription="text mark" text-anchor="middle" transform="translate(607.1136580806103,224.52247278380761)" font-family="Roboto, -apple-system, Helvetica, Arial, sans-serif" font-size="12px" fill="#1C1C1E">Diabolocom / Zaion</text><text aria-label="labelx: 0.811020561722; labely: 1.30567660803; label: Kwak.ai" role="graphics-symbol" aria-roledescription="text mark" text-anchor="middle" transform="translate(581.1020561722404,309.8057049887804)" font-family="Roboto, -apple-system, Helvetica, Arial, sans-serif" font-size="12px" fill="#1C1C1E">Kwak.ai</text><text aria-label="labelx: 0.704587566302; labely: 1.5588346184; label: Allo-Media" role="graphics-symbol" aria-roledescription="text mark" text-anchor="middle" transform="translate(570.4587566301981,281.07227081211124)" font-family="Roboto, -apple-system, Helvetica, Arial, sans-serif" font-size="12px" fill="#1C1C1E">Allo-Media</text><text aria-label="labelx: 0.851872212467; labely: −0.890346683296; label: Gladia" role="graphics-symbol" aria-roledescription="text mark" text-anchor="middle" transform="translate(585.1872212467374,559.0543485540659)" font-family="Roboto, -apple-system, Helvetica, Arial, sans-serif" font-size="12px" fill="#1C1C1E">Gladia</text><text aria-label="labelx: 0.468944666722; labely: −0.282426774312; label: pyannoteAI" role="graphics-symbol" aria-roledescription="text mark" text-anchor="middle" transform="translate(546.8944666722323,490.05543888443714)" font-family="Roboto, -apple-system, Helvetica, Arial, sans-serif" font-size="12px" fill="#1C1C1E">pyannoteAI</text><text aria-label="labelx: 0.398846474139; labely: −1.04373510124; label: OpenAI Realtime" role="graphics-symbol" aria-roledescription="text mark" text-anchor="middle" transform="translate(539.884647413872,576.4639339907171)" font-family="Roboto, -apple-system, Helvetica, Arial, sans-serif" font-size="12px" fill="#1C1C1E">OpenAI Realtime</text><text aria-label="labelx: −0.286662619451; labely: −1.226030715; label: Anthropic Claude" role="graphics-symbol" aria-roledescription="text mark" text-anchor="middle" transform="translate(471.3337380548726,597.1544861528234)" font-family="Roboto, -apple-system, Helvetica, Arial, sans-serif" font-size="12px" fill="#1C1C1E">Anthropic Claude</text><text aria-label="labelx: 2.38198162425; labely: −0.744066185949; label: Whisper / LangChain" role="graphics-symbol" aria-roledescription="text mark" text-anchor="middle" transform="translate(738.1981624251683,542.4515121051671)" font-family="Roboto, -apple-system, Helvetica, Arial, sans-serif" font-size="12px" fill="#1C1C1E">Whisper / LangChain</text><text aria-label="labelx: 2.98468459968; labely: 0.596220047539; label: pyannote OSS + Ollama" role="graphics-symbol" aria-roledescription="text mark" text-anchor="middle" transform="translate(798.4684599681652,390.3290246043525)" font-family="Roboto, -apple-system, Helvetica, Arial, sans-serif" font-size="12px" fill="#1C1C1E">pyannote OSS + Ollama</text><text aria-label="labelx: 2.44709570703; labely: 0.0112580947211; label: LiveKit Agents" role="graphics-symbol" aria-roledescription="text mark" text-anchor="middle" transform="translate(744.7095707033459,456.72220624916076)" font-family="Roboto, -apple-system, Helvetica, Arial, sans-serif" font-size="12px" fill="#1C1C1E">LiveKit Agents</text><text aria-label="labelx: 2.44709570703; labely: −0.353333132805; label: pipecat" role="graphics-symbol" aria-roledescription="text mark" text-anchor="middle" transform="translate(744.7095707033459,498.10331057337334)" font-family="Roboto, -apple-system, Helvetica, Arial, sans-serif" font-size="12px" fill="#1C1C1E">pipecat</text><text aria-label="labelx: 1.36740493512; labely: −1.39176054554; label: Vocode" role="graphics-symbol" aria-roledescription="text mark" text-anchor="middle" transform="translate(636.7404935116981,615.9648219190885)" font-family="Roboto, -apple-system, Helvetica, Arial, sans-serif" font-size="12px" fill="#1C1C1E">Vocode</text><text aria-label="labelx: 1.62943452371; labely: −0.323013969527; label: Rasa Pro CALM" role="graphics-symbol" aria-roledescription="text mark" text-anchor="middle" transform="translate(662.9434523705671,494.6620855412874)" font-family="Roboto, -apple-system, Helvetica, Arial, sans-serif" font-size="12px" fill="#1C1C1E">Rasa Pro CALM</text><text aria-label="labelx: 1.31633204997; labely: −2.15623320893; label: OpenOats" role="graphics-symbol" aria-roledescription="text mark" text-anchor="middle" transform="translate(631.6332049972883,702.7324692132402)" font-family="Roboto, -apple-system, Helvetica, Arial, sans-serif" font-size="12px" fill="#1C1C1E">OpenOats</text><text aria-label="labelx: 1.01681068776; labely: −1.21720134704; label: Open Granola" role="graphics-symbol" aria-roledescription="text mark" text-anchor="middle" transform="translate(601.6810687755523,596.1523528884966)" font-family="Roboto, -apple-system, Helvetica, Arial, sans-serif" font-size="12px" fill="#1C1C1E">Open Granola</text></g><g class="mark-group role-legend" role="graphics-symbol" aria-roledescription="legend" aria-label="Symbol legend titled 'Approaches' for fill color with 32 values: Sidekick, Diabolocom / Zaion, Allo-Media, Google Assist, Amazon Connect, ending with OpenOats"><g transform="translate(1018,0)"><path class="background" aria-hidden="true" d="M0,0h121v525h-121Z" pointer-events="none"/><g><g class="mark-group role-legend-entry"><g transform="translate(0,16)"><path class="background" aria-hidden="true" d="M0,0h0v0h0Z" pointer-events="none"/><g><g class="mark-group role-scope" role="graphics-object" aria-roledescription="group mark container"><g transform="translate(0,0)"><path class="background" aria-hidden="true" d="M0,0h120.1650390625v12.5h-120.1650390625Z" pointer-events="none" opacity="1"/><g><g class="mark-symbol role-legend-symbol" pointer-events="none"><path transform="translate(6,6)" d="M5,0A5,5,0,1,1,-5,0A5,5,0,1,1,5,0" fill="#FF3B30" stroke="white" stroke-width="1.5" opacity="1"/></g><g class="mark-text role-legend-label" pointer-events="none"><text text-anchor="start" transform="translate(16,9)" font-family="Roboto, -apple-system, Helvetica, Arial, sans-serif" font-size="10px" fill="#000" opacity="1">Sidekick</text></g></g><path class="foreground" aria-hidden="true" d="" pointer-events="none" display="none"/></g><g transform="translate(0,16)"><path class="background" aria-hidden="true" d="M0,0h120.1650390625v12.5h-120.1650390625Z" pointer-events="none" opacity="1"/><g><g class="mark-symbol role-legend-symbol" pointer-events="none"><path transform="translate(6,6)" d="M5,0A5,5,0,1,1,-5,0A5,5,0,1,1,5,0" fill="#8BC2FF" stroke="white" stroke-width="1.5" opacity="1"/></g><g class="mark-text role-legend-label" pointer-events="none"><text text-anchor="start" transform="translate(16,9)" font-family="Roboto, -apple-system, Helvetica, Arial, sans-serif" font-size="10px" fill="#000" opacity="1">Diabolocom / Zaion</text></g></g><path class="foreground" aria-hidden="true" d="" pointer-events="none" display="none"/></g><g transform="translate(0,32)"><path class="background" aria-hidden="true" d="M0,0h120.1650390625v12.5h-120.1650390625Z" pointer-events="none" opacity="1"/><g><g class="mark-symbol role-legend-symbol" pointer-events="none"><path transform="translate(6,6)" d="M5,0A5,5,0,1,1,-5,0A5,5,0,1,1,5,0" fill="#7C95E8" stroke="white" stroke-width="1.5" opacity="1"/></g><g class="mark-text role-legend-label" pointer-events="none"><text text-anchor="start" transform="translate(16,9)" font-family="Roboto, -apple-system, Helvetica, Arial, sans-serif" font-size="10px" fill="#000" opacity="1">Allo-Media</text></g></g><path class="foreground" aria-hidden="true" d="" pointer-events="none" display="none"/></g><g transform="translate(0,48)"><path class="background" aria-hidden="true" d="M0,0h120.1650390625v12.5h-120.1650390625Z" pointer-events="none" opacity="1"/><g><g class="mark-symbol role-legend-symbol" pointer-events="none"><path transform="translate(6,6)" d="M5,0A5,5,0,1,1,-5,0A5,5,0,1,1,5,0" fill="#9D9DF4" stroke="white" stroke-width="1.5" opacity="1"/></g><g class="mark-text role-legend-label" pointer-events="none"><text text-anchor="start" transform="translate(16,9)" font-family="Roboto, -apple-system, Helvetica, Arial, sans-serif" font-size="10px" fill="#000" opacity="1">Google Assist</text></g></g><path class="foreground" aria-hidden="true" d="" pointer-events="none" display="none"/></g><g transform="translate(0,64)"><path class="background" aria-hidden="true" d="M0,0h120.1650390625v12.5h-120.1650390625Z" pointer-events="none" opacity="1"/><g><g class="mark-symbol role-legend-symbol" pointer-events="none"><path transform="translate(6,6)" d="M5,0A5,5,0,1,1,-5,0A5,5,0,1,1,5,0" fill="#B39CF3" stroke="white" stroke-width="1.5" opacity="1"/></g><g class="mark-text role-legend-label" pointer-events="none"><text text-anchor="start" transform="translate(16,9)" font-family="Roboto, -apple-system, Helvetica, Arial, sans-serif" font-size="10px" fill="#000" opacity="1">Amazon Connect</text></g></g><path class="foreground" aria-hidden="true" d="" pointer-events="none" display="none"/></g><g transform="translate(0,80)"><path class="background" aria-hidden="true" d="M0,0h120.1650390625v12.5h-120.1650390625Z" pointer-events="none" opacity="1"/><g><g class="mark-symbol role-legend-symbol" pointer-events="none"><path transform="translate(6,6)" d="M5,0A5,5,0,1,1,-5,0A5,5,0,1,1,5,0" fill="#B97BC4" stroke="white" stroke-width="1.5" opacity="1"/></g><g class="mark-text role-legend-label" pointer-events="none"><text text-anchor="start" transform="translate(16,9)" font-family="Roboto, -apple-system, Helvetica, Arial, sans-serif" font-size="10px" fill="#000" opacity="1">Genesys AI</text></g></g><path class="foreground" aria-hidden="true" d="" pointer-events="none" display="none"/></g><g transform="translate(0,96)"><path class="background" aria-hidden="true" d="M0,0h120.1650390625v12.5h-120.1650390625Z" pointer-events="none" opacity="1"/><g><g class="mark-symbol role-legend-symbol" pointer-events="none"><path transform="translate(6,6)" d="M5,0A5,5,0,1,1,-5,0A5,5,0,1,1,5,0" fill="#4FD7FA" stroke="white" stroke-width="1.5" opacity="1"/></g><g class="mark-text role-legend-label" pointer-events="none"><text text-anchor="start" transform="translate(16,9)" font-family="Roboto, -apple-system, Helvetica, Arial, sans-serif" font-size="10px" fill="#000" opacity="1">pyannote OSS + Ollama</text></g></g><path class="foreground" aria-hidden="true" d="" pointer-events="none" display="none"/></g><g transform="translate(0,112)"><path class="background" aria-hidden="true" d="M0,0h120.1650390625v12.5h-120.1650390625Z" pointer-events="none" opacity="1"/><g><g class="mark-symbol role-legend-symbol" pointer-events="none"><path transform="translate(6,6)" d="M5,0A5,5,0,1,1,-5,0A5,5,0,1,1,5,0" fill="#3F94D3" stroke="white" stroke-width="1.5" opacity="1"/></g><g class="mark-text role-legend-label" pointer-events="none"><text text-anchor="start" transform="translate(16,9)" font-family="Roboto, -apple-system, Helvetica, Arial, sans-serif" font-size="10px" fill="#000" opacity="1">Kwak.ai</text></g></g><path class="foreground" aria-hidden="true" d="" pointer-events="none" display="none"/></g><g transform="translate(0,128)"><path class="background" aria-hidden="true" d="M0,0h120.1650390625v12.5h-120.1650390625Z" pointer-events="none" opacity="1"/><g><g class="mark-symbol role-legend-symbol" pointer-events="none"><path transform="translate(6,6)" d="M5,0A5,5,0,1,1,-5,0A5,5,0,1,1,5,0" fill="#50C1F5" stroke="white" stroke-width="1.5" opacity="1"/></g><g class="mark-text role-legend-label" pointer-events="none"><text text-anchor="start" transform="translate(16,9)" font-family="Roboto, -apple-system, Helvetica, Arial, sans-serif" font-size="10px" fill="#000" opacity="1">Azure Com + OpenAI</text></g></g><path class="foreground" aria-hidden="true" d="" pointer-events="none" display="none"/></g><g transform="translate(0,144)"><path class="background" aria-hidden="true" d="M0,0h120.1650390625v12.5h-120.1650390625Z" pointer-events="none" opacity="1"/><g><g class="mark-symbol role-legend-symbol" pointer-events="none"><path transform="translate(6,6)" d="M5,0A5,5,0,1,1,-5,0A5,5,0,1,1,5,0" fill="#D2A4F8" stroke="white" stroke-width="1.5" opacity="1"/></g><g class="mark-text role-legend-label" pointer-events="none"><text text-anchor="start" transform="translate(16,9)" font-family="Roboto, -apple-system, Helvetica, Arial, sans-serif" font-size="10px" fill="#000" opacity="1">Talkdesk Copilot</text></g></g><path class="foreground" aria-hidden="true" d="" pointer-events="none" display="none"/></g><g transform="translate(0,160)"><path class="background" aria-hidden="true" d="M0,0h120.1650390625v12.5h-120.1650390625Z" pointer-events="none" opacity="1"/><g><g class="mark-symbol role-legend-symbol" pointer-events="none"><path transform="translate(6,6)" d="M5,0A5,5,0,1,1,-5,0A5,5,0,1,1,5,0" fill="#AF52DE" stroke="white" stroke-width="1.5" opacity="1"/></g><g class="mark-text role-legend-label" pointer-events="none"><text text-anchor="start" transform="translate(16,9)" font-family="Roboto, -apple-system, Helvetica, Arial, sans-serif" font-size="10px" fill="#000" opacity="1">Cresta Assist</text></g></g><path class="foreground" aria-hidden="true" d="" pointer-events="none" display="none"/></g><g transform="translate(0,176)"><path class="background" aria-hidden="true" d="M0,0h120.1650390625v12.5h-120.1650390625Z" pointer-events="none" opacity="1"/><g><g class="mark-symbol role-legend-symbol" pointer-events="none"><path transform="translate(6,6)" d="M5,0A5,5,0,1,1,-5,0A5,5,0,1,1,5,0" fill="#C679B7" stroke="white" stroke-width="1.5" opacity="1"/></g><g class="mark-text role-legend-label" pointer-events="none"><text text-anchor="start" transform="translate(16,9)" font-family="Roboto, -apple-system, Helvetica, Arial, sans-serif" font-size="10px" fill="#000" opacity="1">Observe.AI</text></g></g><path class="foreground" aria-hidden="true" d="" pointer-events="none" display="none"/></g><g transform="translate(0,192)"><path class="background" aria-hidden="true" d="M0,0h120.1650390625v12.5h-120.1650390625Z" pointer-events="none" opacity="1"/><g><g class="mark-symbol role-legend-symbol" pointer-events="none"><path transform="translate(6,6)" d="M5,0A5,5,0,1,1,-5,0A5,5,0,1,1,5,0" fill="#0EC3C0" stroke="white" stroke-width="1.5" opacity="1"/></g><g class="mark-text role-legend-label" pointer-events="none"><text text-anchor="start" transform="translate(16,9)" font-family="Roboto, -apple-system, Helvetica, Arial, sans-serif" font-size="10px" fill="#000" opacity="1">LiveKit Agents</text></g></g><path class="foreground" aria-hidden="true" d="" pointer-events="none" display="none"/></g><g transform="translate(0,208)"><path class="background" aria-hidden="true" d="M0,0h120.1650390625v12.5h-120.1650390625Z" pointer-events="none" opacity="1"/><g><g class="mark-symbol role-legend-symbol" pointer-events="none"><path transform="translate(6,6)" d="M5,0A5,5,0,1,1,-5,0A5,5,0,1,1,5,0" fill="#FFA080" stroke="white" stroke-width="1.5" opacity="1"/></g><g class="mark-text role-legend-label" pointer-events="none"><text text-anchor="start" transform="translate(16,9)" font-family="Roboto, -apple-system, Helvetica, Arial, sans-serif" font-size="10px" fill="#000" opacity="1">Dialpad AI Contact</text></g></g><path class="foreground" aria-hidden="true" d="" pointer-events="none" display="none"/></g><g transform="translate(0,224)"><path class="background" aria-hidden="true" d="M0,0h120.1650390625v12.5h-120.1650390625Z" pointer-events="none" opacity="1"/><g><g class="mark-symbol role-legend-symbol" pointer-events="none"><path transform="translate(6,6)" d="M5,0A5,5,0,1,1,-5,0A5,5,0,1,1,5,0" fill="#EB90C0" stroke="white" stroke-width="1.5" opacity="1"/></g><g class="mark-text role-legend-label" pointer-events="none"><text text-anchor="start" transform="translate(16,9)" font-family="Roboto, -apple-system, Helvetica, Arial, sans-serif" font-size="10px" fill="#000" opacity="1">NICE Enlighten AI</text></g></g><path class="foreground" aria-hidden="true" d="" pointer-events="none" display="none"/></g><g transform="translate(0,240)"><path class="background" aria-hidden="true" d="M0,0h120.1650390625v12.5h-120.1650390625Z" pointer-events="none" opacity="1"/><g><g class="mark-symbol role-legend-symbol" pointer-events="none"><path transform="translate(6,6)" d="M5,0A5,5,0,1,1,-5,0A5,5,0,1,1,5,0" fill="#E07E9E" stroke="white" stroke-width="1.5" opacity="1"/></g><g class="mark-text role-legend-label" pointer-events="none"><text text-anchor="start" transform="translate(16,9)" font-family="Roboto, -apple-system, Helvetica, Arial, sans-serif" font-size="10px" fill="#000" opacity="1">Cogito Coach</text></g></g><path class="foreground" aria-hidden="true" d="" pointer-events="none" display="none"/></g><g transform="translate(0,256)"><path class="background" aria-hidden="true" d="M0,0h120.1650390625v12.5h-120.1650390625Z" pointer-events="none" opacity="1"/><g><g class="mark-symbol role-legend-symbol" pointer-events="none"><path transform="translate(6,6)" d="M5,0A5,5,0,1,1,-5,0A5,5,0,1,1,5,0" fill="#E98390" stroke="white" stroke-width="1.5" opacity="1"/></g><g class="mark-text role-legend-label" pointer-events="none"><text text-anchor="start" transform="translate(16,9)" font-family="Roboto, -apple-system, Helvetica, Arial, sans-serif" font-size="10px" fill="#000" opacity="1">ASAPP GenAgent</text></g></g><path class="foreground" aria-hidden="true" d="" pointer-events="none" display="none"/></g><g transform="translate(0,272)"><path class="background" aria-hidden="true" d="M0,0h120.1650390625v12.5h-120.1650390625Z" pointer-events="none" opacity="1"/><g><g class="mark-symbol role-legend-symbol" pointer-events="none"><path transform="translate(6,6)" d="M5,0A5,5,0,1,1,-5,0A5,5,0,1,1,5,0" fill="#FE988E" stroke="white" stroke-width="1.5" opacity="1"/></g><g class="mark-text role-legend-label" pointer-events="none"><text text-anchor="start" transform="translate(16,9)" font-family="Roboto, -apple-system, Helvetica, Arial, sans-serif" font-size="10px" fill="#000" opacity="1">Salesforce Voice</text></g></g><path class="foreground" aria-hidden="true" d="" pointer-events="none" display="none"/></g><g transform="translate(0,288)"><path class="background" aria-hidden="true" d="M0,0h120.1650390625v12.5h-120.1650390625Z" pointer-events="none" opacity="1"/><g><g class="mark-symbol role-legend-symbol" pointer-events="none"><path transform="translate(6,6)" d="M5,0A5,5,0,1,1,-5,0A5,5,0,1,1,5,0" fill="#00A4B4" stroke="white" stroke-width="1.5" opacity="1"/></g><g class="mark-text role-legend-label" pointer-events="none"><text text-anchor="start" transform="translate(16,9)" font-family="Roboto, -apple-system, Helvetica, Arial, sans-serif" font-size="10px" fill="#000" opacity="1">pipecat</text></g></g><path class="foreground" aria-hidden="true" d="" pointer-events="none" display="none"/></g><g transform="translate(0,304)"><path class="background" aria-hidden="true" d="M0,0h120.1650390625v12.5h-120.1650390625Z" pointer-events="none" opacity="1"/><g><g class="mark-symbol role-legend-symbol" pointer-events="none"><path transform="translate(6,6)" d="M5,0A5,5,0,1,1,-5,0A5,5,0,1,1,5,0" fill="#11B8A2" stroke="white" stroke-width="1.5" opacity="1"/></g><g class="mark-text role-legend-label" pointer-events="none"><text text-anchor="start" transform="translate(16,9)" font-family="Roboto, -apple-system, Helvetica, Arial, sans-serif" font-size="10px" fill="#000" opacity="1">Rasa Pro CALM</text></g></g><path class="foreground" aria-hidden="true" d="" pointer-events="none" display="none"/></g><g transform="translate(0,320)"><path class="background" aria-hidden="true" d="M0,0h120.1650390625v12.5h-120.1650390625Z" pointer-events="none" opacity="1"/><g><g class="mark-symbol role-legend-symbol" pointer-events="none"><path transform="translate(6,6)" d="M5,0A5,5,0,1,1,-5,0A5,5,0,1,1,5,0" fill="#37B58C" stroke="white" stroke-width="1.5" opacity="1"/></g><g class="mark-text role-legend-label" pointer-events="none"><text text-anchor="start" transform="translate(16,9)" font-family="Roboto, -apple-system, Helvetica, Arial, sans-serif" font-size="10px" fill="#000" opacity="1">pyannoteAI</text></g></g><path class="foreground" aria-hidden="true" d="" pointer-events="none" display="none"/></g><g transform="translate(0,336)"><path class="background" aria-hidden="true" d="M0,0h120.1650390625v12.5h-120.1650390625Z" pointer-events="none" opacity="1"/><g><g class="mark-symbol role-legend-symbol" pointer-events="none"><path transform="translate(6,6)" d="M5,0A5,5,0,1,1,-5,0A5,5,0,1,1,5,0" fill="#3C9C63" stroke="white" stroke-width="1.5" opacity="1"/></g><g class="mark-text role-legend-label" pointer-events="none"><text text-anchor="start" transform="translate(16,9)" font-family="Roboto, -apple-system, Helvetica, Arial, sans-serif" font-size="10px" fill="#000" opacity="1">Gladia</text></g></g><path class="foreground" aria-hidden="true" d="" pointer-events="none" display="none"/></g><g transform="translate(0,352)"><path class="background" aria-hidden="true" d="M0,0h120.1650390625v12.5h-120.1650390625Z" pointer-events="none" opacity="1"/><g><g class="mark-symbol role-legend-symbol" pointer-events="none"><path transform="translate(6,6)" d="M5,0A5,5,0,1,1,-5,0A5,5,0,1,1,5,0" fill="#FAB066" stroke="white" stroke-width="1.5" opacity="1"/></g><g class="mark-text role-legend-label" pointer-events="none"><text text-anchor="start" transform="translate(16,9)" font-family="Roboto, -apple-system, Helvetica, Arial, sans-serif" font-size="10px" fill="#000" opacity="1">Level (QA + real-time)</text></g></g><path class="foreground" aria-hidden="true" d="" pointer-events="none" display="none"/></g><g transform="translate(0,368)"><path class="background" aria-hidden="true" d="M0,0h120.1650390625v12.5h-120.1650390625Z" pointer-events="none" opacity="1"/><g><g class="mark-symbol role-legend-symbol" pointer-events="none"><path transform="translate(6,6)" d="M5,0A5,5,0,1,1,-5,0A5,5,0,1,1,5,0" fill="#C5723D" stroke="white" stroke-width="1.5" opacity="1"/></g><g class="mark-text role-legend-label" pointer-events="none"><text text-anchor="start" transform="translate(16,9)" font-family="Roboto, -apple-system, Helvetica, Arial, sans-serif" font-size="10px" fill="#000" opacity="1">Five9 AI</text></g></g><path class="foreground" aria-hidden="true" d="" pointer-events="none" display="none"/></g><g transform="translate(0,384)"><path class="background" aria-hidden="true" d="M0,0h120.1650390625v12.5h-120.1650390625Z" pointer-events="none" opacity="1"/><g><g class="mark-symbol role-legend-symbol" pointer-events="none"><path transform="translate(6,6)" d="M5,0A5,5,0,1,1,-5,0A5,5,0,1,1,5,0" fill="#007AFF" stroke="white" stroke-width="1.5" opacity="1"/></g><g class="mark-text role-legend-label" pointer-events="none"><text text-anchor="start" transform="translate(16,9)" font-family="Roboto, -apple-system, Helvetica, Arial, sans-serif" font-size="10px" fill="#000" opacity="1">Whisper / LangChain</text></g></g><path class="foreground" aria-hidden="true" d="" pointer-events="none" display="none"/></g><g transform="translate(0,400)"><path class="background" aria-hidden="true" d="M0,0h120.1650390625v12.5h-120.1650390625Z" pointer-events="none" opacity="1"/><g><g class="mark-symbol role-legend-symbol" pointer-events="none"><path transform="translate(6,6)" d="M5,0A5,5,0,1,1,-5,0A5,5,0,1,1,5,0" fill="#8CB25A" stroke="white" stroke-width="1.5" opacity="1"/></g><g class="mark-text role-legend-label" pointer-events="none"><text text-anchor="start" transform="translate(16,9)" font-family="Roboto, -apple-system, Helvetica, Arial, sans-serif" font-size="10px" fill="#000" opacity="1">Open Granola</text></g></g><path class="foreground" aria-hidden="true" d="" pointer-events="none" display="none"/></g><g transform="translate(0,416)"><path class="background" aria-hidden="true" d="M0,0h120.1650390625v12.5h-120.1650390625Z" pointer-events="none" opacity="1"/><g><g class="mark-symbol role-legend-symbol" pointer-events="none"><path transform="translate(6,6)" d="M5,0A5,5,0,1,1,-5,0A5,5,0,1,1,5,0" fill="#CEAB46" stroke="white" stroke-width="1.5" opacity="1"/></g><g class="mark-text role-legend-label" pointer-events="none"><text text-anchor="start" transform="translate(16,9)" font-family="Roboto, -apple-system, Helvetica, Arial, sans-serif" font-size="10px" fill="#000" opacity="1">OpenAI Realtime</text></g></g><path class="foreground" aria-hidden="true" d="" pointer-events="none" display="none"/></g><g transform="translate(0,432)"><path class="background" aria-hidden="true" d="M0,0h120.1650390625v12.5h-120.1650390625Z" pointer-events="none" opacity="1"/><g><g class="mark-symbol role-legend-symbol" pointer-events="none"><path transform="translate(6,6)" d="M5,0A5,5,0,1,1,-5,0A5,5,0,1,1,5,0" fill="#C5B952" stroke="white" stroke-width="1.5" opacity="1"/></g><g class="mark-text role-legend-label" pointer-events="none"><text text-anchor="start" transform="translate(16,9)" font-family="Roboto, -apple-system, Helvetica, Arial, sans-serif" font-size="10px" fill="#000" opacity="1">Anthropic Claude</text></g></g><path class="foreground" aria-hidden="true" d="" pointer-events="none" display="none"/></g><g transform="translate(0,448)"><path class="background" aria-hidden="true" d="M0,0h120.1650390625v12.5h-120.1650390625Z" pointer-events="none" opacity="1"/><g><g class="mark-symbol role-legend-symbol" pointer-events="none"><path transform="translate(6,6)" d="M5,0A5,5,0,1,1,-5,0A5,5,0,1,1,5,0" fill="#BE8828" stroke="white" stroke-width="1.5" opacity="1"/></g><g class="mark-text role-legend-label" pointer-events="none"><text text-anchor="start" transform="translate(16,9)" font-family="Roboto, -apple-system, Helvetica, Arial, sans-serif" font-size="10px" fill="#000" opacity="1">Aircall AI</text></g></g><path class="foreground" aria-hidden="true" d="" pointer-events="none" display="none"/></g><g transform="translate(0,464)"><path class="background" aria-hidden="true" d="M0,0h120.1650390625v12.5h-120.1650390625Z" pointer-events="none" opacity="1"/><g><g class="mark-symbol role-legend-symbol" pointer-events="none"><path transform="translate(6,6)" d="M5,0A5,5,0,1,1,-5,0A5,5,0,1,1,5,0" fill="#A52A2A" stroke="white" stroke-width="1.5" opacity="1"/></g><g class="mark-text role-legend-label" pointer-events="none"><text text-anchor="start" transform="translate(16,9)" font-family="Roboto, -apple-system, Helvetica, Arial, sans-serif" font-size="10px" fill="#000" opacity="1">Zendesk AI Voice</text></g></g><path class="foreground" aria-hidden="true" d="" pointer-events="none" display="none"/></g><g transform="translate(0,480)"><path class="background" aria-hidden="true" d="M0,0h120.1650390625v12.5h-120.1650390625Z" pointer-events="none" opacity="1"/><g><g class="mark-symbol role-legend-symbol" pointer-events="none"><path transform="translate(6,6)" d="M5,0A5,5,0,1,1,-5,0A5,5,0,1,1,5,0" fill="#5A9B51" stroke="white" stroke-width="1.5" opacity="1"/></g><g class="mark-text role-legend-label" pointer-events="none"><text text-anchor="start" transform="translate(16,9)" font-family="Roboto, -apple-system, Helvetica, Arial, sans-serif" font-size="10px" fill="#000" opacity="1">Vocode</text></g></g><path class="foreground" aria-hidden="true" d="" pointer-events="none" display="none"/></g><g transform="translate(0,496)"><path class="background" aria-hidden="true" d="M0,0h120.1650390625v12.5h-120.1650390625Z" pointer-events="none" opacity="1"/><g><g class="mark-symbol role-legend-symbol" pointer-events="none"><path transform="translate(6,6)" d="M5,0A5,5,0,1,1,-5,0A5,5,0,1,1,5,0" fill="#8E9A35" stroke="white" stroke-width="1.5" opacity="1"/></g><g class="mark-text role-legend-label" pointer-events="none"><text text-anchor="start" transform="translate(16,9)" font-family="Roboto, -apple-system, Helvetica, Arial, sans-serif" font-size="10px" fill="#000" opacity="1">OpenOats</text></g></g><path class="foreground" aria-hidden="true" d="" pointer-events="none" display="none"/></g></g></g><path class="foreground" aria-hidden="true" d="" pointer-events="none" display="none"/></g></g><g class="mark-text role-legend-title" pointer-events="none"><text text-anchor="start" transform="translate(0,9)" font-family="Roboto, -apple-system, Helvetica, Arial, sans-serif" font-size="11px" font-weight="bold" fill="#000" opacity="1">Approaches</text></g></g><path class="foreground" aria-hidden="true" d="" pointer-events="none" display="none"/></g></g><g class="mark-group role-title"><g transform="translate(500,-22)"><path class="background" aria-hidden="true" d="M0,0h0v0h0Z" pointer-events="none"/><g><g class="mark-text role-title-text" role="graphics-symbol" aria-roledescription="title" aria-label="Title text 'Approaches in the Quadrant'" pointer-events="none"><text text-anchor="middle" transform="translate(0,14)" font-family="Roboto, -apple-system, Helvetica, Arial, sans-serif" font-size="18px" font-weight="bold" fill="#000" opacity="1">Approaches in the Quadrant</text></g></g><path class="foreground" aria-hidden="true" d="" pointer-events="none" display="none"/></g></g></g><path class="foreground" aria-hidden="true" d="" display="none"/></g></g></g></svg>